<?xml version='1.0' encoding='utf-8'?>
<svg xmlns="http://www.w3.org/2000/svg" width="52.083in" height="52.083in" version="1.1" viewBox="0 0 1322.9 1322.9"><g transform="translate(-2314 -869.74)"><rect x="2314" y="869.74" width="1322.9" height="1322.9" stroke-width=".26132" style="-inkscape-stroke:none;paint-order:stroke fill markers"/><g transform="matrix(4.3367 0 0 4.3367 -14147 -688.28)" stroke-linejoin="round" stroke-width=".1016"><path d="m3937.3 397.07c-0.6638 7e-3 -1.3262 0.0784-1.9751 0.22324-0.4304 0.0741-0.8855 0.20806-0.9415 0.709 1.4887-0.16933 3.1604-7e-3 4.4622-0.83612-0.5124-0.0679-1.0294-0.10152-1.5456-0.0961zm-4.5744 0.65732c-0.663 5e-3 -1.3236 0.0752-1.9653 0.23616-2.1837 0.97014 2.4726 0.87497 3.157-0.17983-0.3956-0.0384-0.7939-0.0593-1.1917-0.0563zm-15.658 3.6266c-0.1779-1e-3 -0.4335 0.0376-0.7823 0.13023-0.628 0.12347-1.1573 0.50433-1.6335 0.91002 1.0989 0.92296 3.6617-1.0331 2.4158-1.0402zm-3.0912 1.0325c-0.1786-3e-3 -0.4605 0.04-0.8698 0.14521-0.7195 0.24694-2.0426 0.27559-1.9156 1.3198 1.1096 0.27891 3.8763-1.4484 2.7854-1.465zm73.796 1.0485c0.1622 1.277 1.969 1.1112 2.9497 1.4004-0.6209-1.0019-1.8632-1.2734-2.9497-1.4004zm-80.174 1.37c-0.2142-4e-3 -0.5022 0.0607-0.8097 0.21394-4.2933 1.6087-8.3642 3.7679-12.344 6.0327-1.3194 0.85372-2.907 1.5378-3.669 2.9983 5.6197-2.5612 10.82-6.1204 16.602-8.4346 0.8077-0.46082 0.6919-0.80166 0.2206-0.81028zm85.025 0.45372c0.2999 1.5663 2.4803 1.6513 3.6691 2.4133 3.1891 1.1536 5.8597 3.5451 9.1617 4.3212-3.5842-3.1891-8.3611-5.0447-12.831-6.7345zm-44.172 5.1842c-5.2132 0.0751-10.425 0.61064-15.574 1.6387h-5e-4c-20.856 3.9617-39.956 15.191-54.522 30.498-0.6597 0.34925 0.095 1.1359 0.4553 0.4656 3.0056-2.8963 6.2053-5.5813 9.3803-8.2765-1.5804 3.6336-5.3274 5.6059-7.4652 8.8444 5.2669-2.3812 10.129-5.8034 13.632-10.45 0.6279-1.3617 3.5452-0.8851 3.1078-2.529 4.0181 0.44802 7.0379-2.6671 10.601-3.8912-4.7977 4.1063-11.804 4.9706-15.995 9.9307 1.21 2.1802 3.8736-0.0212 5.4999-0.61391 1.33-1.0125 4.4729-0.64548 4.1801-2.8856 1.3688 0.11994 2.6705-0.21905 3.8277-0.9493 0.4727 2.7376-3.9866 2.1274-3.9476 4.685 0.8502 2.1202 3.2424 1.0761 4.269-0.27854 1.2206 1.2206 2.8891 0.26468 3.6794-0.9524 1.6051-2.4165 4.0674-4.1736 6.7732-5.1578-0.3034 0.59619-0.6137 1.1927-0.8924 1.803 2.801-0.381 6.043 2.1975 8.4067-0.35657 1.2029-1.1818-0.6633-1.9299-1.5875-2.2862 0.836-1.1677 2.2224 0.1274 3.2877-0.55346 1.0615-0.55034 0.254 1.3508 1.0795 1.5555 1.0372 0.25047 2.1132 0.31388 3.1398 0.60668-1.1536 1.2982-3.2666 0.45859-4.4343 1.8309-1.6862 1.7251-4.0923 2.05-6.3924 1.8454-2.794-0.17991-3.7926 3.1575-6.2833 3.8101-1.8309 0.47625-4.3778 2.0496-3.1854 4.2509 3.1432-1.0936 6.5898-0.55063 9.4227-2.5967-0.9596 1.0336-2.0917 1.884-3.0654 2.8965 0.7373-0.0282 1.4921-0.0355 2.2117-0.23307 1.6757-0.4586 1.7037-3.1396 3.6546-2.9879-0.6244 1.0901-2.141 1.8028-2.141 3.1574 0.6739-0.2928 1.3053-0.66325 1.958-0.99839-0.7091 1.3088 0.7792 1.4219 1.7105 1.7182-1.5134 0.0106-3.1925-0.21548-4.4731 0.78289 2.0461 0.55738 4.3571 2.6706 6.4032 1.1855 1.1289-0.89606 2.8924 0.43408 3.7073-1.1534-1.3014-0.9772-1.555-2.0888-0.035-2.9848-0.6561 2.4165 2.4588 2.0496 3.884 1.4852 2.2719-0.43745 2.8929-3.2135 5.133-3.6933 1.2277-0.60321 2.6281 0.24348 3.8029-0.54674 0.1411 0.61383 0.6664 1.6474 1.3508 0.87127 0.9843-1.2594 1.6193-2.9208 3.3161-3.4112-0.254 0.59619-0.5538 1.1779-0.769 1.7952 1.0336 0.54324 2.17 0.14104 3.2494 0.0176 0.3245 0.77964 0.095 2.3426 1.3085 2.2826 0.9736-0.20108 1.9054-7e-3 2.7626 0.47646 2.4483-1.4817 5.242-2.54 8.1489-2.4236-0.6844 0.87841-1.5239 1.6332-2.1554 2.5575 0.2964 0.67733 1.1678 0.72354 1.757 1.0516-1.651-0.0317-3.7041-0.0533-4.5719 1.6542 0.3951 0.43745 0.8887 0.77978 1.3085 1.2066-1.8098 0.0353-3.9403-0.15175-5.3196 1.2594-0.7126 1.2312-1.0129 2.6776-1.8913 3.8277 1.3935-0.4057 2.191-1.6195 3.2106-2.5332 1.3229 0.0776 2.5116 0.88929 3.8628 0.82579 8.2797-0.60677 16.602-0.0774 24.896-0.33848 2.5823-0.29634 5.3124-0.43422 7.7184 0.74053-1.0337-1.5134 2.191-2.8505 0.6847-4.0923-1.838-1.2665 0.8007-3.4502-0.3106-5.0059-0.6418-0.87842-0.476-1.9719-0.554-2.9879-0.9173-1.8838-3.5172-1.1606-4.826-2.5611-1.0972-0.98073-1.5167-2.4695-2.5115-3.5243-1.0301-0.39159-2.0283 0.12011-2.9631 0.51522-1.5558-0.88194-2.9317-2.3321-3.281-4.1419 2.159-3.0762 7.1575-1.9825 9.0837 0.79737 0.6808 1.4182 2.487 0.9277 3.6406 1.665 2.353 1.5946 3.775 4.3778 6.4844 5.4891 1.7392 0.81139 3.8912 0.36014 5.4399 1.6407 1.1712 0.90664 2.6068 1.2808 4.0003 1.6971-1.1395 1.3652 0.5783 2.5007 1.4743 3.4215 3.1891 2.9245 6.0574 6.2586 9.4935 8.8444-2.2649-4.0287-5.468-7.4719-8.0997-11.278 3.1503 1.4288 4.3815 5.108 7.5318 6.565 2.9527 1.4288 5.2245 3.7994 6.7133 6.6957 2.3565 2.3812 4.1417 5.2638 6.5159 7.6063-2.2578-4.7237-6.491-8.1739-8.523-13.007-1.2171-2.3424-3.2032-4.1384-4.6178-6.3433 2.3777 1.6616 4.3072 3.8241 6.2828 5.9232-0.085-1.1748-0.053-2.3526 1.4356-2.3032-18.169-21.47-46.339-34.496-74.49-34.091zm57.25 1.7374c0.889 1.5452 2.7941 2.0355 4.1594 3.0727 2.6317 1.4676 4.7944 3.7857 7.599 4.8793-0.6632-1.6475-2.4764-2.3674-3.7817-3.4292-2.6282-1.5275-4.9463-3.8877-7.9767-4.5227zm-115.69 1.8939c-0.1163 0.0164-0.2816 0.0666-0.5065 0.15916-9.8249 6.0149-18.57 13.914-25.739 22.945-5.0517 5.3799-8.9605 11.712-12.474 18.161-0.6914 1.337-2.3389 2.6776-1.8097 4.2969 1.0689-0.53622 1.5383-1.6723 1.9581-2.713 8.8688-16.411 21.721-30.657 37.211-41.081 0.5711-0.33645 2.1737-1.8828 1.3602-1.7678zm130.89 8.7457c0.07 1.1712 1.2733 1.7112 2.2717 1.9229-0.3069-1.0336-1.1393-1.9229-2.2717-1.9229zm-79.58 0.52245c1.7709-0.28222 2.3144 2.3602 0.4553 2.5683-2.092-7e-3 -4.0043 1.8166-6.0751 0.88521 0.8255-1.1818 2.7411-0.42659 3.0727-2.1058 1.2982 0.65969 2.1978-0.10947 2.5471-1.3477zm82.014 1.5239c0.4445 1.0971 1.2314 2.36 2.5791 2.3177-0.5715-1.0372-1.4644-1.8979-2.5791-2.3177zm-63.33 1.8133c0.097 0.0802-0.3078 0.97263-0.3318 1.2557-0.755 1.457 0.9347 2.8468 2.2929 2.7445 0.9525-0.63146 1.4567-2.0175 2.822-1.8164-0.4904 0.9137-1.1782 1.6899-1.7497 2.5471 0.6667 1.1924 2.3108-0.66336 2.4484 1.0935 0.1164 1.3899 2.1203 0.45152 2.452 1.2805-1.2524 0.51153-3.4288 0.27183-3.4928 2.1239 0.1128 2.3495 2.4345 3.5451 4.5688 3.2628-0.5186 0.92428-1.3866 1.658-2.3849 2.0107-1.3547-0.34925-2.6496-1.4497-4.0819-0.72296 0.8573-1.8944-0.144-3.9935-0.215-5.9655-0.067-2.0884-2.4906-2.466-3.8876-3.4432-1.1783-0.93839-2.5121 0.34598-3.8138-0.0103 0.5468-1.5205 2.2683-1.8097 3.6618-2.0319 0.5327-0.64911 0.7693-1.5313 1.4149-2.0851 0.1761-0.20587 0.2644-0.2701 0.2967-0.2434zm66.481 1.1147c0.5185 1.7039 2.2299 2.5543 3.2918 3.8737 0.6068 0.60325 1.0582 1.6863 2.0954 1.4852-1.4852-2.0179-3.0871-4.23-5.3872-5.3588zm5.6906 6.0363c0.3845 1.1642 1.263 2.0386 2.0603 2.9311 2.988 3.4149 5.6158 7.1228 8.184 10.855 0.2787 0.35278 1.4323 1.1218 0.8573 0.16226-2.0003-3.5948-4.5965-6.8543-7.1365-10.089-1.2594-1.337-2.2224-3.0937-3.9651-3.8592zm-83.533 9.7674c-0.7959-3e-3 -1.5895 0.0362-2.3751 0.15968-0.6279 0.11995-1.1432 0.5152-1.5983 0.94206 2.1449 1.0513 5.789 1.125 7.0414-0.97048-1.018-0.0536-2.0448-0.12728-3.068-0.13126zm57.788 1.5389c0.8502 1.4746 1.6156 3.6797 3.1925 4.283-0.628-1.6757-1.6014-3.3692-3.1925-4.283zm-159.45 20.825c-0.2293 0.0141-0.6811 0.0386-0.9069 0.0527-3.8417 9.3345-6.5192 19.174-7.9303 29.175 0.071 0.67733-0.3705 1.8661 0.3773 2.1942 0.6068-1.0901 0.6283-2.3636 0.8294-3.5631 1.2029-7.8952 3.3373-15.635 6.1066-23.121 0.5609-1.5593 1.4429-3.0479 1.5239-4.7377zm206.75 3.0551c0.2505 1.3652 0.2858 3.6053 1.8134 4.0463-0.2893-1.4323-0.7022-3.0373-1.8134-4.0463zm-103.03 1.835c-0.5401-5e-3 -1.0787 0.0295-1.6087 0.10491-3.3408 0.42686-6.7344 2.2895-8.3783 5.2917 2.1625-1.8803 4.593-3.5768 7.4858-4.0742 4.3427-0.97718 8.8263 1.0477 11.878 4.0886-1.7285-3.4078-5.596-5.3764-9.3766-5.411zm0.014 3.6592c-0.8797-0.0215-1.7798 0.0828-2.6851 0.33022-5.7856 1.4887-9.4191 7.7715-8.5442 13.568 0.6491-1.4146 0.2294-3.6831 0.8997-5.3552 1.21-4.2227 5.1998-7.5991 9.6413-7.7437 4.7202-0.26811 9.0558 3.3482 10.379 7.7473 0.4586 1.3335 0.3177 2.7904 0.8222 4.1062 0.818-6.2076-4.3547-12.502-10.513-12.652zm105.49 1.9704c0.4092 1.8168 0.455 4.0888 1.8485 5.4188-0.3351-1.771-0.2963-4.3816-1.8485-5.4188zm-95.282 2.7797c0.5398 1.6898 0.9805 3.4079 1.3968 5.133 0.057-1.778 0.6387-4.2299-1.3968-5.133zm1.5627 9.7968c0.1517 1.8027-1e-4 3.6477-1.5523 4.8224 2.4553-0.24342 2.4872-3.1432 1.5523-4.8224zm-14.671 0.7953c-1.5707 0.0102-3.1394 0.0599-4.7031 0.20671-0.7056 0.06-1.2808 0.46927-1.7606 0.95963 4.5191-1.397 9.3242-0.66687 13.977-0.81856 2.0425-0.17639 3.8839 0.69499 5.4855 1.8733-0.7478-2.0673-3.2807-2.2163-5.1434-2.2123-2.6149 0.0662-5.2381-0.0258-7.8558-9e-3zm111.94 2.5032c0.441 1.7568-0.1659 4.8152 1.3828 5.6477-0.3916-1.7709 0.2047-4.7728-1.3828-5.6477zm-95.952 1.5064c-0.4904 0.39864-0.7687 1.9228 0.138 1.8593 1.2982-0.21519 0.3279 1.9151 1.6226 1.7916 1.5099 0.0917 1.7636 1.5986 2.0247 2.7874 0.4198-0.40923 0.8149-0.83961 1.2418-1.2418 0.7162 1.3088 0.2116 2.896 0.7302 4.2824 0.3493-0.46919 0.6954-0.93813 1.034-1.4144-0.1905 1.0019-0.6879 1.8942-1.0795 2.822 1.1219-0.0494 2.0883-0.95966 1.8061-2.1415-0.2364-4.2721-3.9937-7.0342-7.5179-8.7452zm-25.951 0.35606c-0.1053 3e-3 -0.217 0.0363-0.3338 0.10593-2.5576 1.4393-5.5212 2.8788-6.4384 5.9268-0.7232 1.2841-0.3104 2.7836 0.9596 3.528-0.1023-0.85725-0.24-1.704-0.4129-2.5471 0.5927 0.23989 0.4728 1.0545 1.062 1.2909 0.2575-1.5946 0.4373-3.5312 1.9684-4.4519 0.1587 0.24342 0.2929 1.3054 0.7162 0.75861 0.9313-1.2136 1.8238-2.466 2.4799-3.8489 0.2999 0.44802 0.6034 0.89253 0.9385 1.3229 0.2254-0.66675-0.2026-2.1085-0.9395-2.0851zm22.368 0.86092c0.1799 1.7251 0.8392 3.3517 1.1214 5.0591-2.787-3.3831-7.4574-2.4061-11.303-2.5296-3.63-0.0282-8.0611-0.32478-10.266 3.2065 0.307-1.8239 1.0762-3.5415 1.2103-5.3971-0.1552 0.0635-0.4586 0.18662-0.6139 0.25012-2.0249 5.6339-3.3478 11.674-2.48 17.671 0.1376 0.57856 0.5821 0.99155 0.9948 1.3937-0.215-2.8857 0.095-5.7824-0.2011-8.6646 0.635-2.4589 2.3566-4.8119 5.0695-5.1294 4.198-0.40574 8.4454-0.25384 12.658-0.0951 2.5788 0.0635 5.4149 1.5944 5.8312 4.3496 0.4268 3.2738 0 6.5902 0.1798 9.8816 1.8838-1.15 1.263-3.5843 1.3865-5.4188-0.042-4.9636-0.8146-10.396-3.5874-14.577zm-7.0099 3.4892c2.0567 0.0635 4.4344-0.0671 6.0183 1.5028-5.4821-1.0619-11.151-0.73392-16.69-0.31058 0.5997-0.41981 1.2594-0.76923 1.9932-0.86093 2.8787-0.30341 5.7857-0.27834 8.6785-0.33124zm-115.03 3.623c-0.1552 0.0423-0.4623 0.12358-0.614 0.16588-0.6068 3.3972-0.6882 6.9389-0.3989 10.371 0.1552 0.0106 0.4695 0.0318 0.6248 0.0424 0.1622-3.5207 0.4551-7.0555 0.3881-10.58zm92.205 1.7637c-0.3705 1.9226-0.2327 4.0748-1.5203 5.687-1.2877 1.4464 1.0652 3.8312 2.4975 3.5631-0.441-0.94897-1.4958-1.6229-1.6087-2.6918 0.7832-0.15875 1.4392 0.44783 2.1518 0.68419-0.377-1.4182-1.3298-3.0866-0.3209-4.4483 0.8184-1.0266-0.5045-2.1027-1.1994-2.7941zm-2.0133 8.8454c-0.1578-1.2e-4 -0.3252 0.0325-0.5018 0.10439-0.4869 1.15 1.4392 1.4785 2.1906 2.0076-0.1213-0.89131-0.7245-2.1113-1.6888-2.112zm44.522 0.0362c-0.1332-6e-3 -0.2933 0.04-0.4863 0.15658-0.9102 0.33514-1.6752 0.95577-2.3879 1.5978 1.1854-0.27517 2.3812-0.48988 3.6018-0.51108-0.1129-0.53192-0.2517-1.2213-0.7276-1.2433zm-45.384 1.7725c-1.143 1.0619 1.4079 1.4072 2.1487 1.7353-0.5291-0.75493-1.1927-1.5695-2.1487-1.7353zm45.796 0.0863c-0.066-2e-3 -0.1371 8e-3 -0.2129 0.03-1.7603 0.74083-1.0972 1.2028 0.5679 1.0087-0.5538 0.99129-1.4571 1.6971-2.2226 2.512 1.0654-0.13405 2.1376-0.49033 2.9032-1.2805-0.098-0.68296-0.252-2.2505-1.0356-2.2702zm-35.579 0.12867c-0.025 2.8187-0.1696 5.6586 0.1162 8.4703 0.5962 3.6724 4.3815 6.1241 7.9975 5.6937-3.2668-0.41275-6.7139-2.642-6.7629-6.258-0.5292-2.5894 1.0481-5.9974-1.3508-7.906zm25.985 0.0351-0.2185 0.18707c-2.2578 1.8874-0.7272 5.26-1.2987 7.8-0.021 3.8418-3.937 5.8243-7.2884 6.1242 3.5384 0.55033 7.3732-1.4393 8.4527-4.9423 0.6914-3.0057 0.1906-6.1174 0.3529-9.169zm-36.95 1.4325c-0.8361 1.3794 1.8909 1.6225 2.8081 2.1446-0.9701-0.58208-2.0214-1.82-2.8081-2.1446zm47.812 2.9068c0.2681 1.4429-1.8945 2.7058 0.522 1.8945-0.4692 3.0409 0.9171 6.3078-1.2031 8.9395 2.2367-1.6616-1.3193 2.0744 1.1395 1.1431 1.6334-1.457 1.0874-4.2867 1.1364-6.3469-0.1553-1.845 0-4.4942-1.5948-5.6302zm-48.853 0.25425c-0.4445 1.711-0.3597 3.5136-0.8889 5.2069-0.4762 1.9826-0.6277 4.8824 1.8382 5.5351-1.6686-2.0496-1.3476-4.9247-0.3034-7.1825 0.6456-1.1888 0.039-2.5399-0.6459-3.5595zm-1.3756 10.537c0.2611 0.90311 1.005 1.8201 0.4935 2.7797-0.5891 1.1853 1.1113 1.2632 1.8769 1.3126-1.1428-0.71261-1.0968-1.5028 0.039-2.1978-0.7162-0.7373-1.5453-1.3547-2.4096-1.8945zm12.416 2.0547c-0.01-9e-5 -0.017 7.4e-4 -0.026 2e-3 -0.6245 1.0654-0.2684 2.5504-0.3494 3.7781 0.3025-1.0001 0.9054-3.7745 0.3757-3.7801zm38.58 0.33383c-0.037 1.6e-4 -0.076 4e-3 -0.1183 0.0103-0.2963 0.32102-1.5947 1.1996-0.6563 1.3302 1.5733 0.25753-2.8325 0.26779-0.9028 0.82165 1.5106 0.86806 2.8221-2.1672 1.6774-2.1621zm-7.2936 0.28887c-0.4233 0.88194-0.4236 2.9001 0.6594 3.0835 0.1164-0.96661 0.5401-2.766-0.6594-3.0835zm-42.383 4.0747c0.032 2.353 0.3987 5.3974 2.8153 6.5086-2.0779-1.6686-1.1326-4.7694-2.8153-6.5086zm48.137 0.55759c-1.1994 0.89605-0.8677 2.6667-0.9137 3.9791 0.9237-0.90312 1.4253-3.6369 0.9137-3.9791zm-9.6697 1.3896c-0.071-4e-3 -0.1529 0.0104-0.2471 0.046-1.4251 0.51856-1.8693 1.2312-0.032 0.6351-1.4252 1.4993 0.4759 2.3106-0.4589 3.7393 1.8768 0.0247 2.7129 2.0391 1.1431 3.2174 1.2312-0.11289 1.7638 0.97019 2.3952 1.8133 0.025-2.8716-1.4604-5.3973-2.0918-8.1313-0.2316-0.39511-0.2118-1.293-0.709-1.3198zm-27.626 2.6179c-0.044 1e-3 -0.09 6e-3 -0.1374 0.014 0.1413 1.0689 0.1695 2.1483 0.1095 3.2313 1.4936 0.0103 1.4044-3.2802 0.028-3.2453zm-2.2928 1.217c-0.3351 1.5099 0.1163 3.5066 2.0742 3.1962-1.8556-0.2787-1.1958-2.8928-2.0742-3.1962zm0.6562 5.241c-0.068 3e-3 -0.1355 0.0145-0.201 0.0367-0.2046 1.1924-1.1182 3.1821 0.815 3.2138 2.3176 0.43391-1.2173-1.0867 0.014-1.9193 0.7353-0.5371 0.031-1.3579-0.6279-1.3312zm31.842 2.5802c-0.8784 0.4833-0.1583 1.7001-0.2573 2.5115 0.3139 1.2841-1.1252 1.9018-1.7426 2.8014 2.794 7e-3 3.2769-4.0464 1.9999-5.3129zm-33.035 2.4448c-0.019 1e-3 -0.037 5e-3 -0.056 0.0103-0.5997 1.7286-0.4163 5.3973 2.3353 4.5119 2.1837-0.2787-2.4304-0.38784-1.3756-1.7213 0.3519-0.85097-0.3225-2.8409-0.9039-2.8009zm-11.897 1.3312c-0.1092 2e-3 -0.219 6e-3 -0.3292 0.0129 1.6933 0.70908 3.6831 0.68759 5.2353 1.7777 1.1924 0.89605 2.12 2.085 3.2665 3.0339-1.907-2.6349-4.7872-4.8823-8.1726-4.8245zm45.103 2.1001c-1.065 0.0455-4.0864 2.8096-1.4438 1.6697 0.4868-0.127 0.9774-0.23618 1.4712-0.33848 0.4873-1.0083 0.3579-1.3476-0.027-1.3312zm-0.4464 5.5356c-0.025-7.8e-4 -0.05-7e-4 -0.076 5.2e-4h-5e-4c-0.1587 0.5715-1.4919 1.5733-0.5571 1.9084 1.5911 0.38453-0.025 2.3458 1.2593 3.1678 0.6211 1.1606-0.4195 2.4205-0.028 3.6411-0.1905 0.89252 1.3614 0.65931 1.1674-0.13797-0.01-2.3671-0.536-4.7023-0.8888-7.0342-0.1777-0.56389-0.1105-1.5216-0.8759-1.5456zm-20.954 2.0009c-1.5028 0.40569-0.021 2.021-0.3876 2.9946-0.7761 1.591-0.3179 3.3552-0.2439 5.0379 1.4711-2.1414 1.5276-6.1805 0.6315-8.0326zm-12.718 1.5906c-0.2928 1.7568-1.7459 5.285 0.2755 6.0188 0.028-1.9438 0.9804-4.3572-0.2755-6.0188zm107.12 1.5115c-0.5169 0.01-1.0278 0.0439-1.5265 0.10077-7.1649 1.0795-14.358 6.9113-14.94 14.404 1.2841-2.0532 2.4381-4.2158 4.2654-5.8668-0.1728 0.889-0.3949 1.7744-0.4589 2.6846 1.2171-0.57503 1.6334-2.325 3.1574-2.2474-0.1976 0.96308-0.4936 1.9015-0.6594 2.8717 3.2773-5.2035 9.0695-8.6815 15.289-8.5757-3.5525-1.1818-7.4753 0.0419-10.58 1.9151-1.6475 0.92075-2.6213 2.6706-4.2969 3.5455 4.1945-6.0219 12.996-8.4664 19.544-4.8964-2.2533-2.8831-6.1759-4.0051-9.7942-3.9357zm-170.18 0.79065c-0.2163 6.5e-4 -0.4339 8e-3 -0.6522 0.0227-1.1536 0.0776-2.3566 0.38139-3.1574 1.2774 2.2542-0.35984 4.8649-0.4343 6.6182 1.2873-0.6562 0.053-1.3085 0.0884-1.9611 0.13435 3.0797 1.711 6.3745 3.8664 7.4998 7.4047 0.7302 1.9509 0.2291 4.0251 0.074 6.0219 2.0955-2.8928 1.0373-6.7876-0.462-9.7157 1.8979 1.8098 2.2436 4.5228 2.8892 6.9288 0.1411-0.0459 0.4231-0.13394 0.5643-0.17984 0.9193-6.6471-4.7096-13.202-11.413-13.182zm171.59 3.9527c-0.7677 0.0159-1.5844 0.15025-2.2246 0.23667-1.6369 0.55739-3.5423 1.1709-4.4313 2.7761 2.6811-1.3476 5.5104-2.6034 8.5866-2.5399-0.4445-0.3863-1.1629-0.48872-1.9307-0.47284zm-109.27 0.86454c-0.1764 1.4252 1.411 1.9578 2.5223 2.1942-0.6739-0.89253-1.4146-1.8379-2.5223-2.1942zm13.056 0.65578-0.2082 0.19792c-2.1055 2.0144-0.4022 5.2808-2.0955 7.4998 1.4569 0.38453-0.3848 1.8979 0.8676 2.1167 2.1378-2.8646 0.2825-6.6076 1.4361-9.8144zm-48.836 0.1788c-0.1313 4e-3 -0.2623 0.0114-0.3937 0.0227-1.263 0.12347-2.6426 0.41964-3.514 1.418 2.6282-0.55034 5.5529-0.6633 7.846 0.97358 1.9402 1.1465 2.7514 3.3055 3.6334 5.2493 0.4545-4.2241-3.501-7.7761-7.5717-7.6636zm144.29 0.21911c-0.366 9e-3 -0.7325 0.0633-1.0919 0.16691-0.8572 0.18697-1.6121 0.64524-2.3141 1.1462 1.8838-0.45156 3.7959-0.76897 5.7397-0.75137-0.7252-0.38078-1.5286-0.58123-2.3337-0.56172zm-30.583 2.9678c-0.1768-8.9e-4 -0.3539 3e-3 -0.5307 0.0109-5.1611-0.0353-9.8881 3.6475-11.694 8.3571-0.134 1.5769 1.8379 0.74073 2.3988-0.10594-0.1058 0.50448-0.229 1.009-0.307 1.5276 1.6298 0.0212 2.3953-1.9438 3.9228-2.3812-0.381 0.64911-1.0756 1.1855-1.1746 1.9616 0.8643-0.0988 1.3759-1.0374 2.1167-1.4536 2.3389-1.524 5.2812-1.0335 7.8388-0.4408-1.6862-1.2559-3.8241-1.2205-5.8173-1.3193 2.8434-0.91369 6.0887-0.76936 8.7768 0.57826 1.8239 0.91016 3.0589 2.812 5.0803 3.3305-2.4165-4.9212-8.8229-7.3982-14.062-5.6343-2.3213 0.63147-4.0501 2.3742-6.0715 3.5595 3.7783-5.5562 12.45-6.0995 17.487-1.912 1.6475 0.8008 2.2545 2.9668 3.7326 3.7042-0.8202-5.4817-6.216-9.7548-11.697-9.7824zm-53.162 0.82579c0.092 1.2629-0.4445 2.4409-0.4905 3.6897 0.508-0.86783 1.1682-1.6158 2.0749-2.0779-0.3563-0.68439-0.9988-1.1461-1.5844-1.6118zm-25.012 1.3648c-0.1234 1.9791-0.5182 4.3074 0.907 5.9443-0.4657-1.9579-0.1555-4.0852-0.907-5.9443zm18.644 1.371c-1.745 2e-3 -3.4882 0.0757-5.2168 0.24857 0.3249 1.524-0.6456 3.5666 0.3669 4.7449 3.6971 0.43744 7.4222-0.42 11.119-0.63872-0.8749-3.1891-4.9318-1.2524-6.8756-2.0779 1.4287-1.0125 6.6496 1.2842 5.8312-2.0919-1.7339-0.11642-3.4801-0.18677-5.225-0.18501zm-20.656 1.1886c-0.2068-4e-3 -0.4559 0.0461-0.7571 0.16072-13.123 1.6722-25.904 5.2738-38.392 9.5565-1.5169 0.56797-3.1293 1.0022-4.4452 1.9864 0.2681 1.2841 1.6755 1.7568 2.8432 1.7074 2.7693-0.254 5.648-0.44821 8.1174-1.8593 3.8524 1.4605 8.2903-0.10219 12.192-1.1147 0.9808-0.43744 1.6479 0.75818 2.6004 0.68058 6.5899-0.39158 13.144-1.2346 19.73-1.7038 0.6597-2.8434-2.2541-2.5539-4.1873-2.374 1.4217-0.66675 4.7024 0.29997 3.9016-2.4376-3.6265 0.0917-7.1931 0.984-10.763 1.5978-3.5807 0.86078-6.872 2.6846-10.499 3.3584 2.6635-1.6792 6.0218-1.9264 8.6289-3.7326-6.805 0.35983-13.258 3.0235-19.893 4.424 4.7272-1.8274 9.7722-2.8999 14.619-4.4204-0.9384-0.31044-1.9226-0.43753-2.8892-0.61392 0.8749-0.22225 1.5345-0.68396 1.7849-1.5906 0.3987 0.49036 0.5719 1.379 1.3622 1.3084 5.8772 0.21519 11.79-0.1621 17.596-1.0511-0.7254-1.2162-0.1031-3.856-1.5503-3.8824zm40.042 0.0584c0 1.0634 0.3808 2.0393 1.374 2.2913-1.0347 0.012-1.5418 1.0046-0.2527 1.4976 1.5205 0.58561-1.4851 0.38414-0.709 1.4495 8.9571 1.0266 18.101 1.7674 26.765 4.4555-1.6334 0.25753-2.9066 1.3865-4.286 2.2014 6.9568 2.1096 14.344 2.3108 21.354 4.177 1.6863 1.5205 4.1417 1.4782 5.9232 2.8541-3.5383-0.43392-6.8968-2.1378-10.52-1.8521-0.5856 0.0388-1.3937 0.44467-1.1891 1.1467 2.3742 1.2559 4.9812 1.9999 7.3412 3.3052 3.8241 1.1148 7.7967 1.7712 11.695 2.5332 1.3159 0.52916-0.1802-1.5348 0.8852-0.63872 4.9671 2.8822 10.506 4.3746 15.836 6.396 5.7079 2.5647 11.885 3.8804 17.636 6.3252 5.9972 3.5172 11.536 7.8037 17.61 11.183-16.679-12.615-35.084-23.019-54.282-31.302-4.1099-2.3566-9.1507 0.47239-13.296-1.9265 2.734 0.2258 5.5278 0.65648 8.2372-0.0279-15.924-6.9674-32.882-11.762-50.122-14.069zm-85.184 1.096c-0.26-5e-3 -0.5206 0.0137-0.7782 0.0574-0.5364-0.0353-1.7638 0.66712-0.5643 0.68472 2.7869-0.0635 4.819 1.8729 6.149 4.1165 0.1918-2.6056-2.2933-4.814-4.8065-4.8586zm141.27 1.5715c-0.3528 2e-3 -0.706 0.0511-1.0521 0.15452v0.30695c2.8716 0.20814 5.5806 2.3742 5.4183 5.4539 1.3478-2.79-1.493-5.9299-4.3662-5.9154zm-70.419 1.4449c-0.2677-0.0154-0.6196 0.0504-1.0754 0.21962-2.4942 0.3175-5.0521 0.30014-7.4828 0.98806 0.046 0.95249 0.2331 1.9294 0.7411 2.7549 2.6282 0.21164 5.3091 0.23297 7.9338-0.0351 0.3215-1.3871 1.3288-3.844-0.1167-3.9274zm15.506 1.8779c-0.2943-2e-3 -0.5884-1.2e-4 -0.8831 7e-3 -0.2529 0.90995 0.1488 1.3538 0.8185 1.5219-1.1968 0.20869-1.1816 2.3376 0.3736 2.2955 5.9266 0.95603 11.917 1.6472 17.917 1.8624 2.0179 0.21167 3.7925-0.97345 5.2953-2.1694-3.3443-1.1712-6.9178-1.33-10.372-1.9968-4.3789-0.48948-8.7362-1.4876-13.15-1.5203zm-18.778 4.7212c-1.2047 3e-3 -2.5405 0.17944-3.5961 0.15761h-6e-4c0.011 0.15523 0.028 0.47274 0.039 0.63149 1.8803-0.17992 4.526 0.45142 5.9371-0.31058-0.5849-0.37967-1.4426-0.48124-2.3797-0.47852zm-21.581 0.28835c-0.542 8e-3 -1.0952 0.0789-1.6092 0.0806-1.0231 0.35631-3.5601-0.37385-3.5031 0.79736 2.2648 0.8008 4.7907 0.27873 7.0414-0.32452-0.5536-0.47228-1.2321-0.56424-1.9291-0.55346zm-45.54 0.79634c-0.055 8.6e-4 -0.1131 8e-3 -0.1731 0.0217-9.1863 3.4184-18.027 7.7153-26.585 12.478-1.27 0.52916-1.7568 1.8416-1.6578 3.1399 0.8996 0.0952 1.8099 0.0706 2.713 0.1447 2.7587 0.66675 4.7233-1.8593 6.9422-3.02 3.3973-1.8732 6.8338-3.6794 10.115-5.7573 2.3459-1.6263 5.729 0.0671 7.7257-2.1554 0.8749-0.94897 2.0604-1.7251 2.6319-2.8892-0.5226-0.59531-0.8781-1.9751-1.7111-1.9622zm87.504 0.85369c-0.4388 4e-3 -0.8776 0.0168-1.3168 0.0393-0.3563 0.53622 0.614 0.58231 0.9245 0.76223 5.7326 1.1748 11.719 1.0688 17.36 2.6634-5.835-0.55386-11.688-1.7284-17.568-1.2521-1.4887 1.2876 1.6333 2.353 2.36 1.5276-0.5221-0.19756-1.1149-0.25399-1.5523-0.6103 6.2442-0.32456 12.436 1.9966 18.687 0.91002 1.8662-0.33514 3.6796-1.5984 5.6234-0.94929 3.4431 0.67734 6.9602 0.99129 10.435 1.4852-0.011-0.14817-0.032-0.44094-0.046-0.58911-4.9565-1.3829-10.139-1.8552-15.194-2.8112-6.5915 0.5887-13.131-1.2411-19.712-1.1756zm53.614 5.6312c2.6317 0.86431 5.3024 1.7002 7.8388 2.822-2.8116-0.0882-5.4505-1.4356-7.8388-2.822zm-154.31 6.2544c-4.0746 1.778-7.7508 4.4098-11.935 5.9867-4.8718 1.8521-9.3942 4.5649-13.299 8.0186 0.2787 0.18345 0.5575 0.3738 0.8397 0.5643 6.6498-3.1538 12.855-7.5633 19.307-11.246 1.6828-1.1254 3.7711-1.7182 5.087-3.3233zm166.6 0.40928c1.591 0.39511 3.0725 1.1608 4.3672 2.1627-1.5134-0.59267-3.0372-1.2137-4.3672-2.1627zm-182.44 0.85473c-0.027-1e-3 -0.055 8e-4 -0.085 6e-3 -5.4362 2.8187-10.735 5.9476-16.005 9.0661-2.8787 2.7129-6.6639 4.1878-9.5849 6.7913 2.025 0.19755 3.5454-1.45 5.2317-2.3037 1.8909-1.3335 4.632-1.979 5.3552-4.4519 0.028 0.43039 0.056 0.86067 0.088 1.2981 4.7025-2.1343 9.3378-4.4168 13.956-6.7169 1.0286-0.53997 1.8685-3.6524 1.0444-3.6892z" fill="#f7f5c9" stop-color="#000000" stroke="#f7f5c9" style="font-variation-settings:normal"/><path d="m3950.4 405.9c-3.9302-8e-3 -7.8606 0.21191-11.76 0.65112-31.559 3.8279-61.238 22.984-76.845 50.793 2.7869 0.51506 4.6461-1.7885 6.5123-3.4148-1.6474 2.4024-3.7288 5.1222-7.0414 4.3708-3.3161 5.4187-6.0322 11.328-7.9019 17.406 0.5291-0.46567 1.0831-0.91721 1.5064-1.4852 3.6231-2.7552 4.9773-7.2249 7.027-11.091 1.778-1.3899 3.2812-3.0304 4.3325-5.0483 0.3316 3.3373-3.5844 4.6531-4.117 7.6305-0.12 2.3213-1.1538 4.3675-2.3286 6.3149 3.4749-1.2241 4.7379-4.8189 6.5371-7.6517 2.8857-2.988 2.152-7.8848 5.5599-10.552 0.9666 1.1324-0.7619 2.2048-1.1147 3.2737 0.3281 0.55386 1.0827 0.44836 1.6154 0.68472-1.584 3.4008-2.5823 7.0272-3.7677 10.58 2.0638-1.4711 1.9688-4.2227 3.3129-6.1454 1.7075-1.711 3.7709-3.0869 5.9299-4.177-0.8749 1.203-2.1342 2.0146-3.1678 3.0623-1.1465 1.0795-0.2613 3.8735 1.5379 3.2773 2.4306-0.14464 3.3481-2.713 5.1754-3.8948-1.0971 3.0621-4.0359 5.1045-4.9108 8.276 0.035 0.77964 0.9527 1.1328 1.5312 1.4996 0.8784-2.3636 1.6476-4.9322 3.7114-6.5691-0.6915 1.9791-2.1767 3.6057-2.6071 5.6906-0.7867 2.48-0.6138 6.1239-3.3972 7.2952 0.7196-1.9614 1.7635-3.7993 2.282-5.8348-1.4746 1.9579-1.8201 5.3727-5.0198 4.7976 0.1023 4.071-3.6403 6.7523-6.6213 8.9183-3.1115 1.8838-5.2566 6.0289-3.9796 9.5813 0.1553-0.48684 0.293-0.97682 0.4129-1.4707 0.194-1.1254 0.5081-2.2229 0.8997-3.2918 0.9172-2.7446 4.0005-4.0146 6.6357-4.4767 3.5349-0.31397 5.5669-3.5486 7.8952-5.8064 1.8591-1.6651 1.1112-5.5354 4.1134-5.8952-0.8573 1.591-2.4343 2.9106-1.9616 4.9108-2.5823 2.5753-3.7008 6.1382-5.6023 9.1757-0.575 0.89605-1.21 1.7954-1.3405 2.882 2.2084-0.54681 4.544-2.5396 6.8017-1.0439 2.1626 1.0583 2.5398 3.6828 2.0495 5.8136-1.143-0.35278-2.6103-2.0778-3.5698-0.50436-1.3547 3.6301 4.0463 5.5669 3.0127 9.3028-0.949 0.70556-4.1101-4.064-4.4664-0.67024-0.01 0.25047-0.025 0.74783-0.025 0.99477 3.2244 0.59619 2.1695 4.8965 4.9212 6.103 0.6879 0.40569 1.1569-0.35991 1.4567-0.85732 1.397-2.2225 1.5631-5.2386 3.8985-6.7908 0.9314-0.46566 1.7675-2.2332 0.2646-2.4696-3.3161-0.70556-1.8769-4.8401-2.4448-7.2461 0.071-1.9614-2.0321-2.2403-3.3445-2.9988-0.5609-1.8168 0.2859-4.8788 2.7342-4.1486 2.8187 1.0054 2.2152 4.4769 1.5379 6.7241-0.6597 2.5435 3.5101 1.4533 3.6442 3.7393 0.032 1.4253 1.1856 1.5702 2.3745 1.4573 0.3633-1.7427 1.0544-3.4152 1.1849-5.2038-0.071-1.8803 1.6513-2.9878 2.371-4.5682 1.5134-0.48683 2.9353 0.63819 4.4416 0.65939 1.4323-2.0461 0.7161-4.607 1.1994-6.8895 0.3104-1.3935 2.0598-1.2633 3.0582-1.9053 0.3915-1.1042 0.3212-2.3423 0.8609-3.3936 1.2842-0.89253 2.674-1.6298 3.8452-2.6846 0.8466 2.3036-1.7851 4.7976 0.014 6.9954 0.4763-2.54 1.0903-5.4748 2.5332-7.4574 2.2189 1.3582 4.8117 0.44077 7.2564 0.9276 2.8928 0.3175 5.3481-1.5908 6.7345-3.9791 0-2.3918-3.0056-1.0585-3.7006 0.33848-1.6261 2.346-4.4978-2.1662-1.665-2.8365 0.07-0.70556-1.6474-1.3119-2.2118-2.0386 0.5009-1.4817 1.7177-2.7485 3.404-2.3358 1.2982 0.34925 0.7165-1.9329 1.9089-1.7565 1.7604-7e-3 3.3652-0.85027 5.1185-0.92087 0.4868-0.85725 1.0654-1.6581 1.8909-2.219-0.635-0.15522-1.27-0.29982-1.8909-0.48679 0.9208-0.92075 2.205-0.86767 3.2386-0.17622 1.337 0.92427 2.9458 0.45128 4.4204 0.25373 1.5628-0.27164 0.9377-1.8768 0.9627-2.9916 1.0231 0.41628 1.9159 1.0865 2.9001 1.5839 1.3406-0.9913 2.3883-2.3247 3.3373-3.6794-0.702-0.37747-1.4534-0.65274-2.1766-0.98081 0.8114-1.3088 2.4376-1.7601 3.8628-2.0247 1.7604-0.49388 3.3478 1.6615 5.0023 0.42323 0.8784-1.1501 1.1787-2.5965 1.8913-3.8277 1.3793-1.4111 3.5098-1.2241 5.3196-1.2594-0.4198-0.42686-0.9133-0.76919-1.3084-1.2066 0.8678-1.7074 2.9208-1.6864 4.5718-1.6547-0.5892-0.32808-1.4606-0.37377-1.757-1.0511 0.6315-0.92428 1.471-1.6791 2.1554-2.5575-2.9069-0.11642-5.7006 0.94196-8.1489 2.4236-0.8572-0.48325-1.789-0.67754-2.7626-0.47646-1.2138 0.06-0.9839-1.5029-1.3084-2.2826-1.0795 0.12351-2.2158 0.52571-3.2494-0.0176 0.2152-0.61736 0.5149-1.1996 0.7689-1.7958-1.6968 0.49036-2.3318 2.1523-3.3161 3.4117-0.6844 0.77611-1.2097-0.25744-1.3508-0.87127-1.1748 0.79022-2.5752-0.0565-3.8029 0.54674-2.2401 0.47977-2.8611 3.2559-5.133 3.6933-1.4252 0.56444-4.5401 0.93135-3.884-1.4852-1.5207 0.89606-1.2671 2.0076 0.035 2.9848-0.8149 1.5875-2.5789 0.25736-3.7078 1.1534-2.0461 1.4852-4.3566-0.62808-6.4027-1.1855 1.2806-0.99837 2.9598-0.77229 4.4731-0.78289-0.9313-0.29634-2.4201-0.40944-1.711-1.7182-0.6527 0.33514-1.2836 0.70559-1.9575 0.99839 0-1.3547 1.5166-2.0674 2.141-3.1574-1.9509-0.15169-1.9789 2.5293-3.6546 2.9879-0.7196 0.19753-1.4744 0.20487-2.2117 0.23307 0.9737-1.0125 2.1058-1.8628 3.0654-2.8965-2.8329 2.0461-6.2795 1.5031-9.4227 2.5967-1.1923-2.2013 1.3545-3.7752 3.1854-4.2514 2.4907-0.65264 3.4893-3.9895 6.2833-3.8096 2.3001 0.20461 4.7062-0.12028 6.3924-1.8454 1.1677-1.3723 3.2808-0.53267 4.4344-1.8309-1.0266-0.2928-2.1027-0.35621-3.1399-0.60668-0.8255-0.20462-0.018-2.1058-1.0795-1.5555-1.0653 0.68086-2.4517-0.61424-3.2877 0.55346 0.9242 0.3563 2.7904 1.1044 1.5875 2.2862-2.3637 2.5541-5.6057-0.0244-8.4067 0.35657 0.2787-0.6103 0.589-1.2068 0.8924-1.803-2.7058 0.98425-5.1681 2.7413-6.7732 5.1578-0.7903 1.2171-2.4587 2.173-3.6793 0.9524-1.0266 1.3547-3.4188 2.3987-4.269 0.27854-0.039-2.5576 4.4202-1.9474 3.9475-4.685-1.1572 0.73025-2.4588 1.0692-3.8276 0.9493 0.2928 2.2401-2.8502 1.8731-4.1802 2.8856-1.6263 0.59263-4.2899 2.7941-5.4999 0.61391 4.191-4.96 11.197-5.8243 15.995-9.9307-3.563 1.2241-6.5828 4.3393-10.601 3.8912 0.4374 1.6439-2.4799 1.1673-3.1078 2.529-3.5031 4.6461-8.3648 8.0682-13.632 10.45 2.1378-3.2385 5.8847-5.2108 7.4651-8.8444-3.175 2.6952-6.3747 5.3802-9.3803 8.2765-0.3601 0.67028-1.1149-0.11635-0.4552-0.4656 14.566-15.307 33.666-26.536 54.522-30.498 32.949-6.5793 68.531 7.0064 90.064 32.452-1.4888-0.0494-1.5211 1.1285-1.4361 2.3032-1.9756-2.099-3.9051-4.2616-6.2828-5.9232 1.4146 2.2048 3.4007 4.0008 4.6178 6.3433 2.032 4.833 6.2652 8.2833 8.523 13.007-2.3742-2.3424-4.1589-5.225-6.5154-7.6063-1.4888-2.8963-3.7611-5.267-6.7138-6.6957-3.1503-1.457-4.3815-5.1362-7.5318-6.565 2.6317 3.8065 5.8353 7.2497 8.1002 11.278-3.4361-2.5858-6.3043-5.9199-9.4934-8.8444-0.896-0.92075-2.6144-2.0562-1.4749-3.4215-1.3935-0.41628-2.8291-0.79042-4.0003-1.6971-1.5487-1.2806-3.7007-0.82934-5.4399-1.6407-2.7094-1.1112-4.1309-3.8945-6.4839-5.4891-1.1536-0.73731-2.9598-0.24685-3.6406-1.665-1.9262-2.7799-6.9252-3.8736-9.0842-0.79737 0.3493 1.8098 1.7252 3.2599 3.281 4.1419 0.9348-0.39511 1.933-0.90681 2.9631-0.51522 0.9948 1.0548 1.4148 2.5436 2.512 3.5243 1.3088 1.4005 3.9087 0.67725 4.826 2.5611 0.078 1.016-0.088 2.1095 0.5535 2.9879 1.1113 1.5558-1.5274 3.7394 0.3106 5.0059 1.5063 1.2418-1.7179 2.5788-0.6842 4.0923 1.4042 1.0513 0.7759 2.9389 1.358 4.3677 0.6315 1.0372 1.8309 1.5236 2.9492 1.8376 0.4657-0.6738 0.1375-1.5098 0.1375-2.2577 0.9278 0.77259 1.8839 3.0409 3.1998 1.6051 0.9558-0.64911 0.4265-1.7247 0.028-2.529-0.829-1.2488 0.6495-2.3849 1.2986-3.3445 0.8714 1.7568 0.3456 4.3604 2.3177 5.4152 1.0124 0.70556 2.0246-1.2631 2.9207-0.1695 2.1166 1.7674-0.402 4.4557-2.0107 5.6022 0.5398 0.53269 1.2984 2.5928 2.0004 1.2557 0.8431-1.7357 1.57 0.75841 2.5683 1.1782 2.1308 1.0795 1.33 4.3604 3.9476 4.9072-0.3845 2.2401 0.5395 4.2266 1.5379 6.1598 0.3105 0.78669 0.5151 1.6087 0.8149 2.4024 1.5734-0.87489 2.6704-2.353 2.9032-4.1522 1.0513 1.7462 2.7694 3.4817 2.3461 5.6901-0.2435 1.4958 0.3954 3.9654-1.6402 4.3641-2.1096 0.78316-2.3532-2.7694-4.3429-2.5683-0.7866 0.21167-1.5169 0.57865-2.2965 0.79737-0.4692-1.7074-1.1428-3.3551-2.1306-4.8297-2.6035-2.5012-5.3977-5.1438-9.31-4.9356-1.7392-0.68439-0.8573 2.8506-2.5647 2.1239-2.6952-0.27868-5.3373-1.3862-8.0714-0.62063-0.6808 0.49037-0.7479 1.4002-1.1394 2.0846-0.7268 0.66322-2.0921 0.70934-2.3849 1.7606 0.2998 1.5452 1.5416 2.6878 2.0955 4.1377-0.8996-0.17639-1.7744-0.58181-2.7022-0.53951-1.1643 0.29633-0.8328 1.7463-1.1855 2.6283-1.5273 1.3829-0.2364 3.5558-1.4464 5.0586-0.5292 0.83609-1.104 1.6406-1.6402 2.4696 0.3351 3.9335 3.2561 6.819 4.5155 10.393 1.9332-1.6651 4.8397-0.77936 6.7588-2.5327 1.27-1.4464 2.0253-3.5914 1.4009-5.4787-0.4551-1.203-1.9687-1.0337-2.9812-1.3865 2.0461-2.8046 7.9695 0.0178 6.7489 3.5068-0.5221 1.2559-1.8874 1.9931-2.2825 3.2949 0.2328 0.82197 0.6877 1.5523 1.0087 2.3425 0.6597 1.21-0.4446 2.4655-0.1095 3.7284 0.3105 1.2982 0.5222 2.9319-0.6879 3.8597-0.8784 0.98777-1.4954-0.59654-2.2045-1.0516-1.7428 1.1853-0.043 3.3092 0.1091 4.8896-2.3953-1.404-4.3636 0.39881-5.4643 2.4696 1.9332 0.65969 0.5501 2.0354-0.067 3.1714 1.3899 3.8418 7.5599 1.4183 7.8104-2.0107-1.3053-1.4711-2.12-3.3481-2.0107-5.3413 1.2207-1.1748 2.628-2.1942 3.3936-3.7641 0.7937-1.7074 3.1295-0.53247 4.3289-1.7002 0.882-2.413-2.7306 0.97688-3.1786-1.295-1.3441-2.861 2.5257-3.9861 2.8608-6.5226 1.4323-0.89606 3.1997 1.1039 4.6638 0.15141 1.6157-1.3688 3.7182-2.2754 4.4591-4.4168 1.7991-1.1007 3.4186 0.96657 3.3476 2.6846-0.1199 1.2771 1.2173 1.3831 2.1028 1.7994 0 2.2754-1.2559 4.6428-3.4184 5.5459-0.2928 0.55033-0.5786 1.1077-0.8114 1.6898 1.7357-0.52916 3.704-0.27542 3.743 1.9436-0.7091 1.1818-3.3267 1.0656-3.6866 2.8577-0.4057 1.9579 1.5384 3.189 2.1135 4.8612 0.035 1.6898-0.7514 4.2404-2.9316 3.6654-2.5506-0.0106-1.7783-3.1753-1.5808-4.8157-2.5998 1.644-0.2186 4.53-0.91 6.8513 0.2011 0.92075 0.7232 1.7107 1.2806 2.4515 2.7904-3.6618 8.4101-4.8434 12.53-2.9595 0.3881 0.19755 0.7799 0.40543 1.1679 0.62063 2.0673 0.0882-1.8167-2.0392-1.3369-3.1998 0.7902-1.1112 1.6756-2.1555 2.621-3.1362 0.9137 1.5487 2.1413 2.7626 4.0463 2.8226 0.494 1.5275 0.4481 3.1537 0.5751 4.7377 0.4974 1.3264 2.2575-0.78319 2.0035 0.32453 0.194-0.49036 0.4129-0.97379 0.6351-1.45 1.0442-2.0179 1.0584-4.3497 0.5892-6.5298-0.5891-0.762-1.1852-1.5383-1.5168-2.4484 0.7126-0.18345 1.785 0.0777 2.0707-0.8325 0.9243-2.2966 0.1413-4.8115 0.4165-7.1892 1.15-1.0089 2.2999-2.0355 3.4288-3.0727-0.568-1.7604-2.4341-2.8576-2.5151-4.8261-0.095-1.7992-2.1698-2.8433-1.6971-4.7589 1.0125 0.57856 1.6794 2.4976 3.0376 1.8097-0.7902-3.556-2.6246-6.7488-3.5771-10.245 1.7991 0.9278 2.2681 3.27 4.2437 3.9191 0.7126 1.2912 1.0691 2.7803 2.0216 3.9445-0.06-1.6898-1.2067-3.1118-1.4113-4.7346 1.3088-1.2277 1.1994-3.037 1.6087-4.6457 1.1535-0.64558 3.3722-0.75173 3.4886 1.0051 0.4763 3.1891 1.6056 6.3254 3.6799 8.8372 0.7126-1.4182 0.8785-3.0129 1.062-4.5651 0.4868 0.16577 1.0615 1.3302 0.7229 0.21188-0.8961-2.8293-1.0371-6.5618-3.7217-8.3292-2.1696-1.2876-3.817 1.0513-5.7361 1.4676-3.3232-1.4182-4.6461-5.3659-4.9671-8.7173 1.8274 2.3777 3.0198 5.8527 6.3748 6.4348 0.6067-3.4819-1.7853-6.1666-3.9972-8.4703 1.0795 0.93486 2.0919 1.9509 3.2701 2.7693-0.1446-2.7764-2.2365-4.8222-2.9419-7.415 1.097 1.2312 1.9013 3.51 3.9615 2.8644-0.074-1.0125-0.3136-1.9966-0.4935-2.9879 3.9546 4.378 4.5966 11.137 9.3379 14.855-5.1329-16.697-15.452-31.546-28.025-43.54-9.786-9.024-21.364-16.059-33.754-20.892-10.978-4.3448-22.768-6.4165-34.559-6.4399zm-8.7338 17.423c-0.1008-4e-3 -0.2067 3e-3 -0.3173 0.0202-0.3493 1.2382-1.249 2.0074-2.5472 1.3477-0.3316 1.6792-2.2471 0.92401-3.0726 2.1058 2.0708 0.93134 3.983-0.89221 6.075-0.88521 1.7429-0.19513 1.3741-2.53-0.1379-2.5885zm18.331 3.3554c-0.047 0.0163-0.1292 0.0907-0.2614 0.24547-0.6456 0.55387-0.8822 1.4355-1.4149 2.0846-1.3935 0.22224-3.115 0.51196-3.6618 2.0324 1.3017 0.35633 2.6354-0.92804 3.8137 0.0103 1.397 0.9772 3.8206 1.3548 3.8876 3.4432 0.071 1.972 1.0723 4.0711 0.215 5.9655 1.4323-0.72672 2.7272 0.37371 4.0819 0.72296 0.9983-0.35278 1.8663-1.0864 2.3849-2.0107-2.1343 0.28222-4.4559-0.91387-4.5687-3.2634 0.064-1.8521 2.2404-1.6119 3.4928-2.1234-0.3317-0.82902-2.3357 0.1094-2.4521-1.2805-0.1376-1.7568-1.7817 0.0984-2.4484-1.094 0.5715-0.85725 1.2594-1.6329 1.7498-2.5466-1.3653-0.20108-1.8696 1.185-2.8221 1.8164-1.3582 0.1023-3.0479-1.2876-2.2929-2.7445 0.028-0.3067 0.4994-1.3282 0.2966-1.2578zm33.803 11.248c0.6279 0.66675 0.9035 2.5116 1.3762 3.637-1.076-0.88194-3.8491-2.8468-1.3762-3.637zm0.307 5.2426c1.5416-0.14111 2.5192 1.6648 3.761 2.4092-0.762 2.0708-3.9091 3.2281-5.3237 1.1255 0.085-1.2771 1.1993-2.2964 1.5627-3.5347zm-45.095 0.43305c0.9101 0.0163 1.822 0.08 2.7269 0.12764-1.2524 2.0955-4.8965 2.0212-7.0414 0.96996 0.4551-0.42685 0.9705-0.82159 1.5984-0.94154 0.8978-0.1411 1.8059-0.17238 2.7161-0.15606zm57.446 1.5353c1.5911 0.9137 2.5651 2.6067 3.1931 4.2824-1.5769-0.60325-2.3429-2.8078-3.1931-4.2824zm-5.7098 1.48c0.9546 0.0325 1.2556 1.4352 1.0889 2.2841-1.069-0.18697-2.0959-0.58211-3.052-1.0795 0.4234-0.46918 0.8963-0.9351 1.5136-1.1291 0.1636-0.0569 0.3132-0.0801 0.4495-0.0754zm5.1108 0.92656c2.6208 1.6863 4.8319 4.5329 4.7899 7.7675-0.134 1.4464-0.6667 3.4042-2.3177 3.7181-1.2735-0.64911-1.2523-2.367-1.4851-3.5982 0.5856 0.4198 1.1358 0.8924 1.7497 1.2769 0.9952-0.70201-0.084-1.7005 0.018-2.5471 1.4181-2.6138-1.6998-4.5219-2.7549-6.6172zm-16.393 10.863c-0.1532 1e-3 -0.3089 0.0122-0.4676 0.0336-1.2489 0.98425 1.0616 0.87179 1.7249 1.3198 1.9473 1.644-0.5537 3.1182-1.6826 4.2189-0.2716 1.5311 0.2079 5.3199 2.4728 3.9476 0.025-0.96661-0.155-1.9224-0.247-2.882 1.7533 1.7286 3.6055-0.80079 3.161-2.6246-0.9789-1.8951-2.662-4.035-4.9615-4.0132zm-78.244 4.391c1.8369 0.22524 2.349 3.5292 0.2222 4.1589-0.1411-0.89606 0.1167-2.3956-1.2485-2.1875-1.6722 0.33514-0.7519-1.5238 0.1618-1.8624 0.3126-0.11024 0.6021-0.14121 0.8645-0.10903zm127.3 4.8292c0.3669 2.0073 0.8256 5.6834 3.3233 5.7469-0.2222-2.1837-1.3125-4.6604-3.3233-5.7469zm-13.392 0.1726c2.4324 1.7e-4 4.02 4.0803 1.3974 5.1154-2.9845 1.083-4.8856-4.0708-1.894-5.0586 0.1687-0.0384 0.3345-0.0568 0.4966-0.0568zm17.748 20.963c-0.822 1.8274-0.8855 4.9279 1.016 6.0885 0.4339-2.0144-0.085-4.2788-1.016-6.0885zm-2.4164 0.45837c-1.0865 0.56091-2.1413 1.9298-0.9736 2.974 1.1465 1.1254 0.808 3.2841 1.9369 4.1625 0.6773-1.9614 1.4109-6.311-0.9633-7.1365zm-7.0936 12.359c-0.062-3e-3 -0.15 0.0372-0.2724 0.13591-1.8203 1.6228-0.6953 4.6921-0.7513 6.8864 1.6616-1.0478 0.6209-3.6547 1.0407-5.3304-0.1071-0.37207 0.3179-1.6736-0.017-1.6919zm-15.528 16.938c-2.2095-0.0249-4.3025 1.0185-6.028 2.3642-0.2994 0.21527 0.031 0.63869 0.021 0.93844 1.7568 1.7992 4.2971 3.6797 3.8773 6.5231 0 1.8521-2.0711 2.4832-3.528 2.896-0.9525 0.28222-1.9047 0.57883-2.8396 0.90692 0.6385 0.1023 1.2807 0.19391 1.9192 0.32091 4.7907 0.8255 4.9562-5.1472 8.0078-7.2321 2.0461-1.5663 2.561-5.8839-0.4764-6.6389-0.3197-0.0494-0.6378-0.075-0.9535-0.0785zm-85.783 76.514c-0.1566 2e-3 -0.3367 0.0478-0.54 0.14883-3.2315 0.40216-6.4806 0.68773-9.6733 1.3157 0.374-0.35278 0.7019-0.75155 1.0759-1.1043-4.3251-0.26458-8.0502 2.3531-12.142 3.2386 0.8678-0.58914 1.8378-1.0018 2.7445-1.5239-2.2507-0.6738-4.5263 0.76928-6.7029 1.2914-3.9229 1.0054-7.5844 2.8395-11.528 3.7285 4.5685-2.4694 9.8917-3.4465 14.323-6.2017-1.9156-0.0388-3.7145 0.65963-5.5702 0.99477-3.6336-7e-3 -6.5726 2.4592-9.3984 4.4312-1.9967 0.86078-3.9298 1.8484-5.6725 3.1678-2.8469 2.099-6.4344 2.7657-9.3095 4.8013-5.6092 3.9229-11.963 6.6007-17.823 10.083 4.7414-1.0619 8.7418-4.1734 13.307-5.8033 2.8752-1.2947 5.9092-2.8222 9.1441-1.8097 0.8643 0.4692 1.0688-0.62813 1.8449-0.61753 5.7503-0.56797 10.075-5.5069 15.935-5.6798 2.9281-4e-3 5.5776-1.3757 8.4316-1.7673 1.8803-0.16933 3.4643-1.2526 4.886-2.4097 5.4292-1.4146 10.943-2.7551 16.411-4.0886 1.3026-0.10187 1.3547-2.2103 0.2578-2.1947zm18.733 4.2561c-0.908 4.4e-4 -1.814 0.0506-2.7136 0.17518-0.314 0.11994-0.6175 0.26822-0.8997 0.45166 2.5118 1.9015 6.107 1.7994 8.9468 0.90692-1.3123-0.33868-3.3868 0.34207-4.2406-0.39171 1.6299-0.19756 3.3233-0.0883 4.8896-0.67386-1.9766-0.22798-3.985-0.46917-5.9825-0.46819zm-43.808 0.66973c0.077 0.0384-0.089 0.17773-0.5897 0.45113-5.0517 1.8133-9.8495 4.3249-14.996 5.8772 4.579-2.6211 9.712-4.4346 14.718-6.1738 0.471-0.13053 0.791-0.19288 0.8682-0.15451zm93.43 1.0082c-0.9904 0.0119-1.9794 0.0845-2.961 0.22273-0.434 0.15522-1.2733 0.0842-1.0651 0.77566 2.6035 0.86431 5.3126 1.3798 7.8879 2.357 0.8255 0.4445 1.926-0.74077 2.233 0.59273 3.2632 1.4852 7.0166 1.5378 10.435 2.6138 4.0605 1.2876 8.1812 2.5294 12.467 2.7482 4.7272 0.36336 8.9923 3.2279 13.818 2.7058-3.8276-2.1449-8.3046-2.6459-12.362-4.237-1.0513-0.5715-2.0178 0.65254-3.0479 0.26096-4.9072-1.9191-9.8884-3.651-14.919-5.2209-3.8753-1.7857-8.1952-2.8704-12.487-2.819zm-65.473 0.44804c-4.5543 0.13758-8.6855 2.5686-13.19 3.0272-5.969-0.49389-11.123 3.2136-16.764 4.4695-2.6882 0.83255-5.6232 0.75158-8.1773 2.0216-5.0412 2.3601-10.065 4.8434-15.381 6.5226-2.667 0.23636-5.5703-0.80789-8.015 0.77256-2.8752 1.7815-6.297 2.1874-9.278 3.7114-1.8909 1.0548-3.8171 2.0742-5.5139 3.4324 3.5066-1.2418 6.4307-3.7642 10.057-4.7026-0.4869 0.55386-1.0296 1.0587-1.5306 1.602 2.4307-1.0619 4.6385-2.6424 7.2279-3.3233-0.8854 0.87488-1.9579 1.5098-3.0127 2.1518 1.6651-0.57503 3.3198-1.2276 5.0731-1.464-2.7376 1.9191-5.7113 3.542-8.7452 4.9496-1.0654 0.50094-2.0989 1.0797-3.0303 1.7994 5.3023-1.9967 9.9625-5.3411 15.286-7.2884 7.6271-2.8928 14.837-7.0769 22.923-8.5938-1.4182 0.94191-3.1289 1.2172-4.6917 1.8381-8.0575 2.7869-15.872 6.3324-23.255 10.587 8.1704-3.7359 16.425-7.3908 24.913-10.404 4.4168-1.8591 9.1758-2.7871 13.554-4.7274-1.3511 0.0212-2.6842 0.2715-4.0318 0.3421 2.1272-1.5416 5.0584-1.6473 7.5137-2.5962 2.2578-0.99836 4.5865 0.58536 6.8689-0.17311 3.683-1.0372 7.4929-1.4993 11.19-2.4412-1.2206-0.0564-2.4446-0.0244-3.6582-0.15141 1.1325-0.68086 2.4978-0.76247 3.669-1.3622zm40.982 0.10232c-0.5574 4e-3 -0.2965 0.75888-0.3705 1.1152 7.8564 2.3601 15.914 3.9438 23.795 6.1981-0.1976-0.42686-0.4128-0.84308-0.6139-1.2594 3.2738 2.4659 7.5 2.953 11.352 3.9972-2.921-1.9896-6.8543-2.0183-9.7224-4.068-0.9384-0.65264 0.2081-1.1498 0.5044-1.8025-3.757-2.2013-8.2513-1.9156-12.365-2.8892-4.1627-0.61383-8.3785-1.2914-12.58-1.2914zm-85.404 0.17311c-0.1481 0.0529-0.4445 0.1621-0.5891 0.2186-2.3918 1.2382-4.8506 2.4661-6.999 4.0995 2.734-1.0054 5.3057-2.5224 7.5881-4.3181zm-6.7448 1.0723c-0.134 0.06-0.406 0.18028-0.54 0.23668-2.9245 1.4887-5.7114 3.2385-8.5865 4.8224-0.9913 0.63148-2.2685 1.1078-2.6707 2.3213 4.1099-2.1272 8.0895-4.6217 11.797-7.3804zm46.393 3.2959c-0.3755-3e-3 -0.7524 0.0299-1.1281 0.10491-0.5539 0.0494-1.0728 0.25776-1.5984 0.41651 1.2241 0.0282 2.4517-0.085 3.6758 0.0279-1.1818 0.83255-2.8116 0.55748-4.0075 1.4077 2.1343-0.1658 4.1981-0.80793 6.3148-1.1219-1.0186-0.49481-2.1303-0.8265-3.2566-0.83509zm44.912 0.63407c2.9139 0.75494 5.8 1.7956 8.8868 1.6898-2.8999-0.81139-5.867-1.5522-8.8868-1.6898zm-48.284 0.046c-0.5468 0.0212-1.0937 0.0529-1.6299 0.16227-1.5911 0.38806-3.2281 0.58922-4.7697 1.1431 2.1378-0.31044 4.4276-0.3458 6.3996-1.3054zm52.151 3.175c6.4276 1.8098 12.933 3.436 19.484 4.7413-4.6601-1.8309-9.7226-2.579-14.534-3.9972-1.6545-0.23284-3.2809-0.63479-4.9496-0.74415zm-107.23 0.6842c-5.0976 1.531-9.0983 5.2669-14.048 7.1014-1.7073 1.33-3.7888 2.0814-5.4363 3.482 3.2985-0.0388 5.8845-2.9563 8.8196-4.2969-0.056 0.18697-0.1762 0.55398-0.2362 0.73742 3.7112-2.1943 7.7222-4.0605 10.901-7.0239zm144.66 3.5316c5.976 2.3777 12.224 4.1273 18.397 5.9335-5.9337-2.5012-12.157-4.3495-18.397-5.9335zm-15.515 0.71933c1.845 0.97366 3.9543 1.2947 5.9899 1.6686-1.9086-0.82198-3.9579-1.2806-5.9899-1.6686zm-6.029 0.032c2.3813 1.4182 5.2209 1.7251 7.8103 2.6246-2.4377-1.2806-5.1645-1.9085-7.8103-2.6246zm49.354 0.61392c0.1447 0.10583 0.4337 0.31377 0.5819 0.41961 1.6651 0.62794 3.3584 1.3476 5.1857 1.1607-1.8697-0.67734-3.7497-1.5486-5.7676-1.5803zm-110.8 2.419c-2.7987-2.9e-4 -5.5476 0.95103-8.3504 0.75965-2.166-0.4092-4.3741-1.083-6.5825-0.50798-3.2421 0.74436-6.4912 1.471-9.7333 2.2154 4.1663-0.30691 8.3008-1.0197 12.471-1.2702-1.6051 1.0866-3.6438 0.98077-5.4147 1.6299 6.2724-0.74083 12.707-1.1287 18.813-2.7621-0.4022-0.045-0.8032-0.0645-1.2031-0.0646zm122.87 0.71004c1.1465 0.78317 2.3917 1.6581 3.8628 1.4252-1.1607-0.77258-2.5188-1.1536-3.8628-1.4252zm-120.58 0.38705c-0.5743-0.014-1.5434 0.25721-2.0309 0.22325-4.572 0.53269-9.1583 1.1395-13.642 2.1978 5.3975-0.45155 10.749-1.4956 16.129-2.1694-0.015-0.17969-0.1948-0.24528-0.4558-0.25167zm113.08 0.1633c1.2065 0.86431 2.5506 1.5242 3.9476 2.0216-1.1324-0.98424-2.4341-1.8134-3.9476-2.0216zm-202.08 0.66663c-2.7976 1.6016-5.5491 3.3799-8.6853 4.2866 0.2469 0.80081 1.4146 1.1746 2.1131 0.68419 2.5541-1.3123 5.0483-2.7802 7.4119-4.4064-0.2822-0.1905-0.561-0.38085-0.8397-0.5643zm213.73 0.339c2.0602 2.0461 4.9565 3.0864 7.5458 4.3388-2.2683-1.8062-4.8153-3.3545-7.5458-4.3388zm-219.68 0.22892c-0.1341 0.0529-0.4056 0.15898-0.5432 0.21188-3.2879 1.8309-7.1512 2.6636-10.093 5.0731 1.6898-0.95603 3.5313-0.87884 5.3728-0.81184-0.5009-0.11995-1.0019-0.23244-1.5028-0.33124 2.2225-1.4288 4.8651-2.2228 6.7666-4.1419zm20.287 1.5146c-0.5325 9e-3 -1.5944 0.40361-1.9606 0.67283-6.7628 4.0075-13.748 7.7435-20.147 12.316 5.3234-2.8469 10.531-5.9408 15.805-8.8935 2.1766-1.3088 4.339-2.6462 6.5862-3.821 0.091-0.20284-0.041-0.27806-0.2832-0.27388zm157.12 0.65836c4.2545 1.6439 8.6044 3.4542 13.113 4.2127-4.1698-1.8556-8.7279-2.9144-13.113-4.2127zm21.17 1.048c3.7006 1.6651 7.4754 3.2139 11.3 4.5827-3.4961-2.0779-7.3908-3.5102-11.3-4.5827zm-209.22 0.3173c-0.2081 0.067-0.6172 0.2012-0.8253 0.2682-2.727 1.6828-5.5102 3.3831-8.0114 5.3904 3.0269-1.7145 6.205-3.3937 8.8367-5.6586zm201.88 2.1875c-0.1168 5.4e-4 -0.2344 4e-3 -0.3519 0.0103-0.021 0.47625-0.035 1.0336 0.6175 0.9772 5.8103 0.86783 11.31 3.0166 16.947 4.5548-3.9405-1.718-8.0818-2.9425-12.139-4.3677-1.6437-0.55563-3.3215-1.1827-5.0741-1.1746zm-195.13 0.98082c-0.1376 0.0564-0.4092 0.16931-0.5468 0.22221-2.4166 1.2453-4.777 2.6882-6.8972 4.3956 2.5999-1.3123 5.1827-2.7692 7.444-4.6178zm218.32 0.7829c-0.046 1.0372-1.1255 0.36018-1.757 0.36018 1.1218 0.57503 2.3001 1.023 3.5031 1.404-0.4868-0.39864-0.9876-0.77623-1.4603-1.1855 2.7057 0.0882 5.0551 1.4887 7.4822 2.5011-2.1096-1.8768-4.9634-2.9776-7.768-3.0799z" fill="#47d6bf" stop-color="#000000" stroke="#47d6bf" style="font-variation-settings:normal"/><path d="m3993.8 437.92c-2.473 0.79023 0.2997 2.7556 1.3757 3.6375-0.4727-1.1254-0.7478-2.9708-1.3757-3.6375zm0.4496 5.2348c-0.047 7e-4 -0.094 3e-3 -0.1426 8e-3 -0.3634 1.2382-1.4782 2.2576-1.5632 3.5347 1.4146 2.1025 4.5617 0.94529 5.3237-1.1255-1.203-0.72109-2.1578-2.4386-3.6179-2.4169zm6.4461 3.4561c-0.1222 2e-3 -0.2547 0.0262-0.3979 0.076-0.6173 0.19403-1.0897 0.65943-1.5131 1.1286 0.9561 0.49742 1.9825 0.89256 3.0515 1.0795 0.1697-0.86403-0.145-2.3014-1.1405-2.2841zm5.163 0.92656c1.0551 2.0952 4.173 4.0038 2.7549 6.6177-0.103 0.84666 0.9767 1.8446-0.018 2.5466-0.6139-0.38452-1.1642-0.85712-1.7498-1.2769 0.2328 1.2312 0.2117 2.9491 1.4852 3.5982 1.651-0.31397 2.1837-2.2717 2.3177-3.7181 0.042-3.2346-2.1691-6.0811-4.7899-7.7675zm-52.459 0.14727c-1.0196 0.9137-1.8171 2.1275-3.2106 2.5332-1.6545 1.2382-3.2419-0.91711-5.0023-0.42323-1.4252 0.26459-3.0514 0.71588-3.8628 2.0247 0.7232 0.32807 1.4746 0.60334 2.1766 0.98081-0.949 1.3547-1.9967 2.6881-3.3373 3.6794-0.9842-0.49741-1.877-1.1676-2.9001-1.5839-0.025 1.1148 0.5996 2.7199-0.9632 2.9916-0.635 1.4499 1.076 0.79013 1.8521 0.52555 1.4358-0.89253 2.6354 0.93166 4.1382 0.68471 9.0417-0.0741 18.094 0.0952 27.132-0.0847 4.2334-0.74788 8.4952 0.25405 12.732-0.30334 2.9245-0.26458 5.6444 1.2067 8.569 1.0444-0.6633-0.44802-2.9743-0.33556-1.7254-1.3198 2.54-0.34219 4.3849 1.9582 5.4291 3.9796 0.088-0.81845 0.043-1.7253 0.5328-2.4309 2.2648-0.77964 4.7487-0.70187 7.1158-0.54312 1.6087-1.1465 4.1273-3.8348 2.0107-5.6022-0.8961-1.0936-1.9088 0.87506-2.9212 0.1695-1.9721-1.0548-1.4463-3.6583-2.3177-5.4152-0.6491 0.95956-2.1271 2.0957-1.2981 3.3445 0.3988 0.80433 0.9281 1.8799-0.028 2.529-1.3159 1.4358-2.272-0.83248-3.1998-1.6051 0 0.74789 0.3282 1.5839-0.1375 2.2577-1.1183-0.31397-2.3177-0.80044-2.9492-1.8376-0.5821-1.4288 0.045-3.3164-1.3585-4.3677-2.406-1.1748-5.1361-1.0369-7.7184-0.74053-8.2938 0.26106-16.616-0.26829-24.896 0.33848-1.3512 0.0635-2.5399-0.74819-3.8628-0.82579zm-15.311 78.088c-0.1376 0.067-0.4127 0.2043-0.5503 0.2713-1.1995 0.72672-1.5626 2.2298-1.8449 3.5104 1.196-0.9525 1.8061-2.42 2.3952-3.7817zm-5.8456 6.1903c-0.012 1e-3 -0.024 6e-3 -0.035 0.015-0.6138 0.59267-0.7056 1.5029-0.8149 2.3037 1.5994 0.9945 1.2156-2.3584 0.8501-2.3187zm-72.666 15.147c-0.72-0.014-1.445 0.0164-2.172 0.0935-3.0832 0.48683-6.4134 1.3438-8.5865 3.7357 3.0056-0.88547 5.8314-2.6915 9.0981-2.4128-0.1517 1.1677-2.0709 0.43012-2.5119 1.4955 4.5719-0.41981 9.4227 0.53986 13.01 3.5455 2.9104 2.1555 4.1311 5.6833 5.8033 8.7349 0.9167 0.10936 0.6209-0.99825 0.8537-1.5627 0.9349 1.2453 1.1466 2.9525 2.3037 4.0178-0.1305-1.6898-0.9381-3.2033-1.4567-4.7873 2.4306 2.166 2.2221 5.8106 3.8907 8.3364 0.2911-10.835-9.4326-20.987-20.233-21.197zm109.07 29.511c-1.4358 0.37747-1.2135 1.9546-2.0143 2.8365-0.7126 0.41981-0.194 0.72663 0.3281 0.9524 2.3495 1.2982 1.2311-2.4272 1.6862-3.7889zm-0.2883 5.4565c-0.1416 5e-3 -0.2861 0.0543-0.414 0.15658-0.695 0.41275-1.3512 0.89944-1.9544 1.4392 1.0266-0.19403 2.1274-0.2327 3.0588-0.74776 0.1349-0.48948-0.2658-0.86406-0.6904-0.84801z" fill="#fbebaf" stop-color="#000000" stroke="#fbebaf" style="font-variation-settings:normal"/><path d="m3868.3 453.93c-1.8662 1.6263-3.7254 3.9298-6.5123 3.4148-0.4762-0.0811-0.3563 0.67026-0.5291 0.95601 3.3126 0.75142 5.394-1.9684 7.0414-4.3708zm169.09 7.9871c0.1799 0.99131 0.4195 1.9755 0.4935 2.9879-2.0602 0.64559-2.8645-1.6332-3.9615-2.8644h-6e-4c0.7055 2.5929 2.7974 4.6387 2.942 7.415-1.1782-0.81845-2.1906-1.8345-3.2701-2.7693 2.2119 2.3036 4.6039 4.9884 3.9972 8.4703-3.355-0.58208-4.5474-4.057-6.3748-6.4348 0.321 3.3514 1.6439 7.2991 4.9671 8.7173 1.9191-0.41628 3.5665-2.7552 5.7361-1.4676 2.6846 1.7674 2.8256 5.4999 3.7217 8.3292 0.3386 1.1183-0.2361-0.0461-0.7229-0.21188-0.1835 1.5522-0.3494 3.1469-1.062 4.5651-2.0743-2.5118-3.2031-5.6481-3.6794-8.8372-0.1164-1.7568-2.3356-1.6507-3.4891-1.0051-0.4093 1.6087-0.2999 3.418-1.6087 4.6457 0.2046 1.6228 1.3513 3.0448 1.4113 4.7346-0.9525-1.1642-1.309-2.6528-2.0216-3.9439-1.9756-0.64911-2.4446-2.9919-4.2437-3.9197 0.9525 3.496 2.7868 6.6889 3.577 10.245 3.9617 1.6404 3.4607 6.9072 3.1714 10.453 2.5471-0.47272 0.702 1.0584 0.1623 2.3425-0.127 1.7357 1.4359 3.3339 0.8785 5.0943-0.5821 0.97014-1.577 1.7111-2.6495 2.0603-1.2735-0.19756-2.3142-1.0373-3.4995-1.4712-0.5221 0.90311-0.8856 1.8836-1.2878 2.8396 0.4692 2.1802 0.4551 4.512-0.5891 6.5298 1.8239 1.2665 2.5792 5.2742-0.2289 5.8704-1.2488-1.1677-0.7691-2.9775-0.4057-4.4204 0.254-1.1077-1.5066 1.0019-2.004-0.32453-0.035 2.2789 1.0234 4.6565-0.049 6.8332 1.1466-0.56444 2.3073-1.1075 3.4432-1.7002 2.5577-0.70555 0.9844-3.3302 2.1027-4.9248 0.3457 0.45155 0.6561 0.93105 0.9912 1.3932 0.3175-1.0266 0.4373-2.8362 1.9048-2.7234 0.4163 1.0619 0.406 2.2189 0.5436 3.3336 0.822-0.24346 1.7001-0.6346 2.4268 0.0568-0.635-3.3408-0.1409-6.8262-0.1199-10.216 2.8081 2.3566 2.3957 6.4203 2.6039 9.7188 1.6757-3.683-0.3708-7.8812 1.8165-11.402 0.4409-2.0743 2.6074-0.69834 3.5352 0.25063-1.524-1.3194-1.0552-3.4962-0.907-5.2601 0.9527 0.31397 0.7234 1.5102 0.9809 2.2898 0.5186-2.6035 0.5681-5.2599 0.8185-7.8951 2.4518 0.75846 0.924 4.3388 1.7213 5.8064 2.4271-0.32808 1.048 1.8275 0.5189 3.0975 0.4092 1.2312 1.8624 1.2312 2.9243 1.4252-0.2364-11.116-2.2294-22.454-5.8771-32.857-4.7413-3.7183-5.3833-10.477-9.3379-14.855zm1.1244 5.7113c2.0109 1.0866 3.1011 3.5632 3.3233 5.7469-2.4977-0.0635-2.9564-3.7396-3.3233-5.7469zm-13.391 0.1726c-0.1622-1e-5 -0.3279 0.0185-0.4966 0.0568-2.9916 0.98778-1.09 6.1416 1.8945 5.0586 2.6226-1.0352 1.0345-5.1153-1.3979-5.1154zm-170.26 6.4208c-0.4233 0.56798-0.9773 1.0195-1.5064 1.4852-1.8733 4.5191-2.8469 9.5322-3.9052 14.355 0.374-0.45156 0.9522-0.75523 1.4743-0.98806 1.2877 1.6334-0.134 3.6761-0.7126 5.3201 3.6654-1.6969 4.3286-6.0465 5.7573-9.3979-0.8784-1.5698-1.7426-3.4047-1.0935-5.225 0.4905-1.8309 2.1592-4.1485-0.014-5.549zm188.01 14.542c0.931 1.8098 1.4504 4.0742 1.0165 6.0885-1.9015-1.1606-1.8385-4.2611-1.0165-6.0885zm-2.4164 0.45837c2.3742 0.8255 1.6405 5.1751 0.9632 7.1365-1.1289-0.87842-0.7903-3.0372-1.9368-4.1625-1.1677-1.0442-0.1129-2.4131 0.9736-2.974zm-172.74 8.2972c-0.9737 2.3213-1.203 4.9674-0.3281 7.3592 0.4939 1.0866-0.032 2.1624-0.353 3.2101 2.9069-0.20814 5.027 2.0848 6.3676 4.392 0.5432-2.4977 3.3725-2.921 4.4767-4.9248-0.8784-0.99484-1.1428-2.2506-0.6454-3.4959 0-0.24694 0.015-0.7443 0.025-0.99477-1.1818 0.82197-1.9685 2.018-2.5647 3.3021-0.3986-4.0217-3.115-7.5957-6.9779-8.848z" fill="#227980" stop-color="#000000" stroke="#227980" style="font-variation-settings:normal"/><path d="m3871.8 453.82c-3.4079 2.667-2.6742 7.5638-5.5599 10.552-1.7991 2.8328-3.0621 6.4276-6.537 7.6517 1.1748-1.9473 2.2085-3.9936 2.3285-6.3149 0.5326-2.9774 4.4482-4.2933 4.1166-7.6305-1.0513 2.0179-2.5541 3.6583-4.3321 5.0483-2.0497 3.8664-3.4044 8.3361-7.0274 11.091 2.1729 1.4005 0.5043 3.7181 0.014 5.549-0.6491 1.8203 0.2156 3.6552 1.094 5.225 0.374-0.51152 0.7409-1.0654 1.3441-1.3229 0.6774 1.21 0.3529 2.6281 0.3669 3.9439 0.6209-0.32456 2.0702-1.5486 2.0882-0.15864 0.9242 2.9704-0.9384 5.7218-0.9064 8.6181 1.4746 4e-3 2.434-1.859 3.9827-1.1534 0-0.75141-0.038-1.5062-0.049-2.2541-0.1199 0.49389-0.2576 0.98387-0.4129 1.4707-1.277-3.5525 0.8681-7.6975 3.9796-9.5813 2.981-2.166 6.7236-4.8473 6.6213-8.9183 3.1997 0.57503 3.5457-2.8397 5.0203-4.7976-0.5185 2.0355-1.5629 3.8733-2.2825 5.8348 2.7834-1.1712 2.6105-4.8151 3.3972-7.2952 0.4304-2.0849 1.9156-3.7115 2.6071-5.6906-2.0638 1.6369-2.833 4.2055-3.7114 6.5691-0.5785-0.36689-1.4957-0.72001-1.5307-1.4996 0.8749-3.1715 3.8132-5.2139 4.9103-8.276-1.8273 1.1818-2.7443 3.7502-5.1749 3.8948-1.7992 0.5962-2.6849-2.1978-1.5384-3.2773 1.0336-1.0478 2.2929-1.8594 3.1678-3.0623-2.159 1.0901-4.2224 2.466-5.9299 4.177-1.3441 1.9226-1.2487 4.6743-3.3124 6.1454 1.1853-3.5525 2.1832-7.1789 3.7672-10.58-0.5327-0.23636-1.2873-0.13086-1.6154-0.68472 0.3528-1.0689 2.0812-2.1413 1.1146-3.2737zm10.467 19.375c-3.0022 0.35983-2.2544 4.2301-4.1135 5.8952-2.3283 2.2578-4.3602 5.4924-7.8951 5.8064-2.6352 0.46214-5.7186 1.7321-6.6358 4.4767 0.018 2.5894 0.4306 5.1474 0.554 7.7298 1.1536 0.15875 2.3387 0.10194 3.4711 0.41238 3.8629 1.2524 6.5793 4.8264 6.9779 8.848 0.5962-1.2841 1.3829-2.4802 2.5647-3.3021 0.3563-3.3937 3.5174 1.3758 4.4664 0.67024 1.0336-3.7359-4.3675-5.6727-3.0128-9.3028 0.9595-1.5734 2.4269 0.15158 3.5699 0.50436 0.4903-2.1308 0.1131-4.7553-2.0495-5.8136-2.2577-1.4958-4.5933 0.49757-6.8017 1.0444 0.1305-1.0866 0.7655-1.9865 1.3405-2.8825 1.9015-3.0374 3.0199-6.6004 5.6022-9.1757-0.4727-2.0002 1.1044-3.3198 1.9617-4.9108zm148.43 15.565c-0.4727 1.9156 1.6021 2.9597 1.6971 4.7589 0.081 1.9685 1.9471 3.0657 2.5151 4.8261-1.1289 1.0372-2.2788 2.0637-3.4288 3.0727-0.2752 2.3777 0.5078 4.8926-0.4165 7.1892-0.2857 0.91015-1.3581 0.64905-2.0707 0.8325 0.3316 0.91017 0.9277 1.6864 1.5168 2.4484 0.4022-0.95603 0.7656-1.9365 1.2877-2.8396 1.1853 0.43391 2.2261 1.2732 3.4996 1.4707 1.0725-0.34925 2.0673-1.0897 2.6494-2.0598 0.5574-1.7604-1.0055-3.3586-0.8785-5.0943 0.5397-1.2841 2.3848-2.8152-0.1623-2.3425 0.2893-3.5454 0.7904-8.8122-3.1713-10.453-1.3582 0.68792-2.0251-1.2312-3.0376-1.8097zm2.557 12.821c0.4075-0.0828-0.054 1.3024 0.057 1.6883-0.4198 1.6757 0.6209 4.2827-1.0407 5.3304 0.056-2.1943-1.069-5.2636 0.7513-6.8864 0.098-0.0789 0.1738-0.12047 0.2321-0.1323zm-53.273 107.53c-1.0757-0.0126-2.1808 0.21803-3.238 0.55449 0.7091 0.0882 1.4109 0.21531 2.127 0.24701 1.6687 0.10936 3.2951 0.51131 4.9496 0.74415-1.1212-1.1113-2.4555-1.5294-3.8386-1.5456z" fill="#248f93" stop-color="#000000" stroke="#248f93" style="font-variation-settings:normal"/><path d="m3930.2 457.12c-0.5653 0.0154-1.1168 0.2326-1.5772 0.69298 0.6209 0.18697 1.2559 0.33157 1.8909 0.48679-0.8255 0.56092-1.4041 1.3617-1.8909 2.219-1.7533 0.0706-3.3581 0.91387-5.1185 0.92087-1.1924-0.17639-0.6107 2.1057-1.9089 1.7565-1.6863-0.41275-2.9031 0.85412-3.404 2.3358 0.5644 0.72673 2.2818 1.3331 2.2118 2.0386-2.8328 0.67028 0.039 5.1825 1.665 2.8365 0.695-1.397 3.7005-2.7303 3.7005-0.33848 4.7061 0.22225 9.4298-0.60319 14.125 0.0636 1.8132 0.32455 3.634 0.0105 5.4508-0.10593-0.5504 0.52564-1.1432 0.99814-1.6759 1.5379 3.7853-1.9685 8.2868-2.2895 12.273-0.71262-0.014-0.45508-0.2857-1.1888 0.4728-0.97359 8.1703 0.254 16.33-0.75124 24.497-0.17621 2.5083 0.38808 5.0379 0.17283 7.5567 0.0599 0.2999 0.63147-0.1411 1.1215-0.6491 1.4531 2.7341-0.76552 5.3762 0.34247 8.0714 0.62115 1.7074 0.72673 0.8255-2.8083 2.5647-2.1239 3.9123-0.20814 6.7065 2.4344 9.31 4.9356 0.5821-2.1943 2.4445-2.5822 4.346-1.7038-0.9984-1.9332-1.9224-3.9197-1.5379-6.1598-2.6176-0.54681-1.8168-3.8277-3.9476-4.9072-0.9983-0.41981-1.7252-2.9139-2.5683-1.1782-0.702 1.337-1.4606-0.72305-2.0004-1.2557-2.3671-0.15875-4.8505-0.23652-7.1153 0.54312-0.4907 0.70555-0.4448 1.6124-0.5328 2.4309 0.4445 1.8239-1.4077 4.3533-3.161 2.6246 0.092 0.95956 0.272 1.9154 0.247 2.882-2.2649 1.3723-2.7444-2.4165-2.4728-3.9476 1.1289-1.1007 3.6299-2.5754 1.6826-4.2194-2.9246 0.16228-5.6445-1.3084-8.569-1.0439-4.2368 0.55739-8.4986-0.44454-12.732 0.30334-9.0381 0.18-18.09 0.0106-27.132 0.0847-1.5028 0.24695-2.7024-1.5772-4.1382-0.68471-0.7761 0.26458-2.4871 0.92436-1.8521-0.52555-1.4746 0.19755-3.0834 0.67054-4.4204-0.25373-0.5168-0.34572-1.0961-0.5322-1.6614-0.51676zm85.898 59.691c-3.1864-0.0172-6.4423 1.3282-8.3607 3.8458-1.6828 2.988-2.4837 6.8227-0.6351 9.9307 0.056-0.43392 0.1164-0.86763 0.1834-1.2945-1.3688-3.496 0.3245-7.4612 3.0267-9.8072 2.8082-2.1202 6.5865-2.5152 9.9555-1.7885-1.2877-0.5887-2.7214-0.87844-4.1698-0.88625zm0.3276 17.846c-1.1452-0.0117-2.2535 0.47802-3.2453 1.0284-4.0357 2.6035-6.2472 8.1278-3.5625 12.467-0.3669-2.6247-0.7342-5.4677 0.6981-7.8631 1.3123-2.8363 4.1629-4.371 6.9076-5.5387-0.2672-0.0615-0.5336-0.0908-0.7979-0.0935z" fill="#fcde98" stop-color="#000000" stroke="#fcde98" style="font-variation-settings:normal"/><path d="m3911 462.78c-0.2068 2.1e-4 -0.4286 0.0382-0.663 0.12092-0.9137 0.33867-1.834 2.1976-0.1618 1.8624 1.3652-0.20814 1.1074 1.2914 1.2485 2.1875 2.2027-0.65221 1.575-4.1729-0.4237-4.1708zm63.786 6.7396c-6.1233 0.0283-12.245 0.54603-18.373 0.35553-0.7585-0.2152-0.4868 0.51851-0.4728 0.97359 2.8999 1.7992 5.1927 4.3711 7.6269 6.643 0.5362-1.5804 2.0747 0.27897 3.1084 0.35657 2.5999-0.17992 5.2066 0.76548 7.7783 0.0388 1.5875-0.43037 3.249-0.32486 4.8788-0.37776 2.1061-0.34925 2.8083 2.1875 3.1682 3.775 0.3527-0.88194 0.021-2.3319 1.1855-2.6283 0.9278-0.0423 1.8026 0.36312 2.7022 0.53951-0.5539-1.4499-1.7957-2.5926-2.0955-4.1377 0.2928-1.0513 1.6581-1.0974 2.3849-1.7606 0.3915-0.68439 0.4586-1.5943 1.1394-2.0846 0.508-0.33161 0.949-0.82219 0.6491-1.4537-2.5188 0.11286-5.0484 0.32811-7.5567-0.0599-2.0417-0.14376-4.0831-0.18874-6.1241-0.17932zm-38.419 0.34985c-3.5301-0.0595-7.0698 0.36306-10.599 0.19637-1.3864 2.3883-3.8416 4.2966-6.7344 3.9791-2.4447-0.48683-5.0375 0.4306-7.2564-0.9276-1.4429 1.9826-2.0569 4.918-2.5332 7.458 8.7136-1.2065 17.53-0.3036 26.282-0.92449 0.4163-0.86783 0.4553-1.9544 1.2702-2.5859 0.1764 0.75847 0.2886 1.5348 0.3876 2.3074 0.2188-1.0231-0.1164-2.5047 0.9772-3.0939 2.2261-1.0689 3.5562-3.2636 5.5071-4.717 0.5327-0.53975 1.1255-1.0122 1.6759-1.5379-1.8168 0.11644-3.6376 0.43048-5.4508 0.10593-1.1739-0.16668-2.3492-0.24009-3.5259-0.25993zm79.461 1.3219c-0.2328 1.7992-1.3298 3.2773-2.9032 4.1522-0.2998-0.79375-0.5044-1.6158-0.8149-2.4024-1.9015-0.87842-3.7639-0.49051-4.346 1.7038 0.9878 1.4746 1.6614 3.1222 2.1306 4.8297 0.7796-0.21872 1.5099-0.5857 2.2965-0.79737 1.9897-0.20108 2.2333 3.3515 4.3429 2.5683 2.0356-0.39864 1.3967-2.8683 1.6402-4.3641 0.4233-2.2084-1.2948-3.9438-2.3461-5.6901zm-44.574 33.761c-0.2787 1.203 0.043 2.3988 0.2966 3.577-0.6632 0.66322-1.3936 1.2769-1.8205 2.1306 0.7091-0.11289 1.4182-0.2646 2.1414-0.2434 0.2998 1.136-0.8748 1.7149-1.4428 2.498 1.4464 0.22578 2.8503-1.2207 2.2893-2.6494-0.4833-1.7604-0.2998-3.8241-1.464-5.3128zm59.478 19.72c-1.1359 0.59267-2.2966 1.1357-3.4432 1.7002-3.1609 2.5118-5.6973 6.336-5.0059 10.548 0.053 0.254 0.1589 0.75834 0.2119 1.0123 0.6315-4.0358 1.5307-8.5016 5.4007-10.714 1.4182-1.009 3.1256-1.4996 4.5791-2.4557-0.5821-0.0741-1.164-0.0668-1.7426-0.0915z" fill="#fbce81" stop-color="#000000" stroke="#fbce81" style="font-variation-settings:normal"/><path d="m3909.2 473.58c-1.1712 1.0548-2.561 1.7921-3.8452 2.6846h-5e-4c-0.5397 1.0513-0.4695 2.2899-0.861 3.3941-0.9984 0.64205-2.7478 0.51132-3.0582 1.9048-0.4833 2.2825 0.2329 4.8434-1.1994 6.8895 1.9932-0.43392 4.0285-0.695 6.0534-0.28577 10.301 0.0247 20.768-1.5306 30.96 0.56844 0.2578-3.1115 0.1342-6.2548-0.095-9.3627-0.099-0.77259-0.2117-1.5489-0.3881-2.3074-0.8149 0.63147-0.8534 1.7181-1.2697 2.5859-8.7524 0.62089-17.568-0.28201-26.282 0.92449-1.799-2.1978 0.8327-4.6923-0.014-6.996zm55.089 3.2789c-0.3173-0.0186-0.5828 0.13966-0.7504 0.63355-0.1023 4.7554-0.1902 9.5321 0.3354 14.27 0.1306-1.3652 0.024-3.5032 2.0174-3.1574 4.4556 0.44096 9.2856-1.3651 13.494 0.20825 0.5362-0.82903 1.111-1.6335 1.6402-2.4696 1.21-1.5028-0.081-3.6757 1.4464-5.0586-0.3599-1.5875-1.0621-4.1242-3.1682-3.775-1.6298 0.0529-3.2913-0.0526-4.8788 0.37776-2.5717 0.72673-5.1784-0.21918-7.7783-0.0393-0.7107-0.0534-1.66-0.94876-2.358-0.98961zm-62.556 40.442c-0.5897 1e-3 -1.1836 0.0612-1.7756 0.18551-0.8325 0.10227-1.6651 0.16237-2.5012 0.18707-2.861 0.7867 2.064 0.5292 3.1823 0.5116-0.8784 0.381-2.4909 0.17972-2.6179 1.3756 2.4446-0.77258 5.0415-1.217 7.5003-0.20102-0.261 0.06-0.7833 0.17977-1.0444 0.23977 3.1115 1.8874 4.9884 5.0658 5.6446 8.5829 0.1094-1.0901 0.1162-2.1835 0.1762-3.2701 0.6279 1.644 0.2681 3.3938 0.1587 5.0906 0.2152-0.0142 0.6457-0.0354 0.8609-0.046 0.1023-0.44097 0.201-0.88185 0.293-1.3193 1.1062-5.8698-4.1767-11.348-9.8769-11.337zm115.27 0.0594c-2.3994 0.0229-4.7889 0.66524-6.7195 2.1229-2.7022 2.346-4.3955 6.3111-3.0267 9.8072 0.949-2.3036 0.5647-5.0552 2.3038-7.0378 0.3846-1.0195 1.432-0.60703 2.2293-0.4377 0.01-0.29986-0.321-0.72324-0.021-0.93844 1.9721-1.5381 4.4239-2.6808 6.9815-2.2856 0.889-0.0353 1.7748-0.15903 2.6567-0.27544-0.388-0.2152-0.7798-0.42308-1.1679-0.62063-1.0528-0.2271-2.1454-0.34476-3.236-0.33435zm-51.67 5.2555c0.063 1.7004-1.623 2.9776-0.7199 4.6886 1.0584-1.3123 1.2561-3.1223 0.7199-4.6886zm43.967 9.525c-1.3582 0.43744-2.6 1.1499-3.8453 1.8273-1.1183 1.6863-1.8625 3.5984-1.6226 5.6622 0.2787 0.70908 0.6208 1.3935 1.1782 1.9332 0.144-1.083-1.5628-4.8862 0.081-2.5931 0.7373-2.7693 2.3177-5.3233 5.2492-6.1206 0.2222-0.0952 0.6598-0.29289 0.8785-0.38809-0.6385-0.127-1.2807-0.21861-1.9192-0.32091zm-150.31 18.489c-0.4247 0.0102-0.8495 0.0437-1.2733 0.10232-0.7303 0.0882-1.3863 0.42345-1.9931 0.81856 3.9229-0.20814 8.3359 0.33537 11.186 3.3269-1.1007-0.28575-2.325-1.5137-3.4045-0.56121 1.6122 0.99836 3.3938 1.8768 4.5227 3.4608 0.8608 1.1501 0.9665 2.6848 1.8661 3.8101 0.028-1.4005-0.3915-2.741-0.709-4.0886 1.2982 1.3264 2.0709 3.0478 3.3021 4.4271-0.8302-6.2971-7.1267-11.45-13.497-11.296zm3.376 4.4592c1.6828 1.0795 3.242 2.286 4.7202 3.623-0.5539-2.099-2.7517-3.2032-4.7202-3.623zm126.02 0.6718c-0.4096 4e-3 -0.8179 0.0446-1.2201 0.1328-3.5137 0.0494-5.4011 4.0107-8.9359 3.4251-3.1327 0.14111-5.8807 2.7097-6.3675 5.7754 1.0583-0.14464 1.0618-1.6123 1.6686-2.3249 1.591-2.4977 4.8433-2.6461 7.4962-2.6355 1.8697-1.3476 3.6656-3.0829 6.0539-3.4251 0.8431-0.23636 1.9717-0.0425 2.5326-0.86093-0.4074-0.0582-0.8181-0.0908-1.2278-0.0868z" fill="#fcbc69" stop-color="#000000" stroke="#fcbc69" style="font-variation-settings:normal"/><path d="m3857.3 483.67c-0.6032 0.25753-0.9701 0.81139-1.3441 1.3229h5e-4c-1.4287 3.3514-2.0919 7.701-5.7573 9.3979 0.5786-1.644 2.0004-3.6867 0.7127-5.3201-0.5221 0.23283-1.1004 0.5365-1.4744 0.98806-1.1359 6.3288-2.1379 12.911-1.8345 19.385 1.5663 1.1677 3.2347 2.5051 3.1817 4.6746 1.4605-0.37041 2.6955-0.17299 3.3905 1.2769 3.9935-2.2719 8.7983-0.15878 11.257 3.3161 2.2895 0.508 3.0269 3.5207 5.5351 3.2773 2.593-0.0882 4.752 1.3477 6.858 2.6494-0.194-0.50448-0.3851-1.0092-0.4801-1.5384 0.1411-0.98424 2.0427-0.16236 1.8417-1.1431-1.6475 0.28575-4.3919 0.47272-4.6565-1.771-0.095-2.607-0.1552-5.2457-1.1359-7.7081-1.3406-2.3072-3.4612-4.6001-6.3681-4.392 0.3208-1.0478 0.8469-2.1236 0.353-3.2101-0.8749-2.3918-0.6456-5.038 0.3281-7.3592-1.1324-0.31044-2.318-0.25363-3.4716-0.41238-0.1234-2.5823-0.5354-5.1404-0.5534-7.7298-0.3916 1.0689-0.7057 2.1664-0.8997 3.2918 0.01 0.74789 0.049 1.5027 0.049 2.2541-1.5487-0.70555-2.5087 1.1574-3.9833 1.1534-0.032-2.8963 1.8312-5.6477 0.907-8.6181-0.018-1.39-1.4679-0.16592-2.0888 0.15864-0.014-1.3159 0.3105-2.7339-0.3669-3.9439zm190.13 15.628c-0.2504 2.6352-0.2999 5.2916-0.8185 7.8951-0.2575-0.77963-0.028-1.9758-0.9809-2.2898-0.1482 1.7639-0.617 3.9408 0.907 5.2601-0.9278-0.94897-3.0943-2.325-3.5352-0.25063-2.1873 3.5207-0.1408 7.7189-1.8165 11.402-0.2082-3.2985 0.2042-7.3622-2.6039-9.7188-0.021 3.3902-0.5151 6.8756 0.1199 10.216 1.0583 0.87841 0.6041 2.2611 0.6671 3.4324 0.6385 0.58562 1.1144 1.3263 1.2697 2.1906 0.9736-0.40922 2.1202-0.90316 2.3037-2.0779 0.6562-2.6952 3.2313-4.106 5.6302-4.995 0.5433-2.8822 1.0549-6.1947 3.6478-8.015 1.0725-0.54681 0.7304-1.8207 0.3741-2.7202-1.0619-0.19403-2.5151-0.19405-2.9243-1.4252 0.5291-1.27 1.9082-3.4256-0.5189-3.0975-0.7973-1.4676 0.7305-5.0479-1.7213-5.8064zm-43.187 107.56c-0.1482 0.0776-0.4483 0.23981-0.5964 0.32091 12.375 3.7359 24.525 8.2303 36.685 12.658-0.4057-0.40217-0.7653-0.83928-1.1498-1.2485 2.9633 0.63147 5.5701 2.3738 8.5582 2.896-10.587-4.9389-21.816-8.3572-32.998-11.656-3.6618-0.34572-6.9285-2.6917-10.499-2.9704zm-99.716 9.7048c-0.4092 0.067-0.8185 0.14808-1.2206 0.23978-1.9579 0.56797-3.9615 1.0266-5.8312 1.8521 2.3918-0.52564 4.7658-1.224 7.0518-2.0919zm-43.49 0.32091c-2.9351 1.3406-5.5211 4.2581-8.8196 4.2969 1.6475-1.4005 3.729-2.152 5.4363-3.482-1.605-0.0564-2.9349 0.92117-4.2684 1.6655-5.2105 3.3196-10.58 6.3958-15.91 9.5002 2.0673-0.61736 3.7888-1.9652 5.7397-2.819 0.6209-0.28223 0.5497 0.734 0.5147 1.108 0.8325-0.53622 1.6263-1.2032 2.6035-1.4361 0.6597 0.15875 1.3903 0.86433 2.0324 0.28577 4.0992-2.8504 8.6395-5.1434 12.435-8.3819 0.06-0.18344 0.1802-0.55045 0.2362-0.73742zm54.451 0.75499c-0.5433 0.0423-1.0827 0.0885-1.6154 0.19431-2.3883 0.63852-4.9 0.7583-7.246 1.4991 2.9704-0.41275 6.0005-0.77975 8.8614-1.6934z" fill="#194c5b" stop-color="#000000" stroke="#194c5b" style="font-variation-settings:normal"/><path d="m3883.8 485.54c-1.7946 0.12174-2.3816 2.6653-1.8909 4.255 1.3124 0.75847 3.4145 1.0368 3.3445 2.9983 0.5679 2.4059-0.8712 6.5405 2.4449 7.2461 1.5029 0.23636 0.6663 2.004-0.2651 2.4696-2.3354 1.5522-2.501 4.5683-3.898 6.7908-0.3422 1.5169 1.1255 1.6511 2.2438 1.8769 2.7728 0.34573 4.3286 3.1501 4.1346 5.75 1.2982 0.51153 2.4622 1.2527 3.3688 2.3322-0.7726-3.1644-1.7357-6.3008-3.2985-9.1653 0.8537-1.0795 1.8348-2.0884 2.9425-2.9068 4.8895 0.40569 6.2686 6.6677 4.4906 10.488 0.8361-0.0247 1.6687-0.0848 2.5012-0.18707-1.9861-0.0917-0.063-2.4061-0.2537-3.6091-0.3668-2.4624-1.99-4.6178-2.2087-7.1613 0.8925 0.0953 1.8629 0.58569 2.7166 0.0848 0.1729-0.96661 0.176-1.9547 0.3277-2.9213 1.5452-0.2787 2.6285 0.79034 2.8825 2.2438 2.0532 3.2103 3.9265 6.6288 6.844 9.1829 1.1501 0.48684 2.1908-0.60687 2.5823-1.5911 0.9984-2.4518-0.9384-5.2456 0.3033-7.5809 1.4711 3.6089 3.3653 7.1328 3.9016 11.038 0.2751 1.6369 2.346 1.5068 3.5031 0.95292-0.01-1.651-0.3491-3.5491 1.0444-4.7873 1.1782-1.8027 3.4396-0.68828 5.0695-0.27905 0.5715-1.3335 0.9066-2.7549 1.3229-4.1414-0.127-1.9932-2.1311-2.2122-3.6551-1.7606-0.1093-1.5522-0.6386-3.1042-1.51-4.3847-1.0371 0.44802-1.3546 1.6086-1.9332 2.48-2.5365-1.1324-1.0404-4.8932-3.3052-6.3149-0.8326-0.4445-1.7395 0.0956-2.4521 0.52245 0.6844 1.5663 1.7781 2.9209 2.3813 4.533-1.1641-1.7709-2.4903-3.5175-4.5646-4.2654-1.2312-0.28927-1.3758-3.0511-2.8468-1.8164-1.2101 1.6898-0.8928 4.2404-2.6919 5.6374-0.5433-0.4692-1.0195-1.0056-1.5627-1.4712-0.5998 0.98073-0.4661 2.1377-0.4661 3.2313-3.616-1.4852-2.9421-6.3884-3.3548-9.5705-2.9102 2.1343-2.039 5.9651-3.0091 8.9602-1.8133-2.1731-1.1181-5.2775-2.5963-7.5882-0.1658 1.3652-0.071 2.7553-0.3214 4.1134-0.8643 0.19403-1.7534 0.2294-2.6283 0.34934 0.6103 0.79022 1.3585 1.4606 1.9829 2.2438-3.5419 0.20108-2.1803-4.0782-3.221-6.2513-1.1889 0.11289-2.342-0.032-2.374-1.4573-0.1341-2.286-4.304-1.1958-3.6443-3.7393 0.6773-2.2472 1.2808-5.7187-1.5379-6.7241-0.306-0.0913-0.5869-0.12333-0.8433-0.10594zm107.69 12.862c-3.1334-0.12341-5.6276 3.8146-8.8191 2.1875-2.9351-0.0423-5.8562-0.38443-8.7772-0.68781-0.7655-0.0212-1.6329-1.1783-2.1586-0.20464 1.1289 6.2936 2.0708 12.566 4.0887 18.655 1.0795-0.37396 2.2224-0.6561 3.376-0.4656 3.0797-0.0353 2.0215 4.4947 4.6638 5.2638 1.7075-0.0988 2.0917-2.2648 3.3264-3.0303 3.2032-0.0212 6.3925 0.82866 9.5958 0.67696 1.6439-1.3688 2.8007-3.3619 4.8292-4.2509 1.6757-0.75847 4.6145-0.75117 4.7733 1.6583 0.6914-2.3213-1.6898-5.2073 0.91-6.8513-0.1975 1.6404-0.9698 4.8051 1.5808 4.8157 2.1802 0.57502 2.9666-1.9756 2.9316-3.6654-0.5751-1.6722-2.5192-2.9033-2.1135-4.8612 0.3599-1.7921 2.9775-1.6759 3.6866-2.8577-0.039-2.219-2.0073-2.4727-3.743-1.9436 0.2328-0.58208 0.5186-1.1395 0.8114-1.6898-2.988-1.1148-6.3783-1.0834-9.4051-0.13798-1.0371 0.21519-1.0439 1.4079-1.432 2.1911-1.1994 1.1677-3.5352-7e-3 -4.3289 1.7002-0.7656 1.5699-2.1729 2.5894-3.3936 3.7641-0.1093 1.9932 0.7054 3.8702 2.0107 5.3413-0.2505 3.429-6.4205 5.8525-7.8104 2.0107 0.6173-1.1359 2.0004-2.5117 0.067-3.1714 1.1007-2.0708 3.069-3.8737 5.4643-2.4696-0.1513-1.5804-1.8519-3.7043-0.1091-4.8896 0.7091 0.45508 1.3261 2.0394 2.2045 1.0516 1.2101-0.9278 0.9984-2.5615 0.6879-3.8597-0.3351-1.2629 0.7692-2.5184 0.1095-3.7284-0.4974 1.8909-1.4956 0.10228-2.3916-0.46922-0.2149-0.0472-0.4267-0.0734-0.6356-0.0816z" fill="#fd9a44" stop-color="#000000" stroke="#fd9a44" style="font-variation-settings:normal"/><path d="m3925.7 487.64c-6.4601-0.0588-12.963 0.54305-19.401 0.52762-2.0249-0.40923-4.0607-0.14815-6.0539 0.28577-1.5063-0.0212-2.9282-1.1462-4.4416-0.65939-0.7197 1.5804-2.4414 2.6879-2.3704 4.5682-0.1305 1.7886-0.8221 3.4611-1.1854 5.2038 1.0407 2.1731-0.3209 6.4524 3.221 6.2513-0.6244-0.78317-1.3726-1.4536-1.9829-2.2438 0.8749-0.11994 1.764-0.15531 2.6283-0.34934 0.251-1.3582 0.1551-2.7482 0.3209-4.1134 1.4782 2.3107 0.7835 5.4151 2.5968 7.5882 0.9701-2.9951 0.099-6.8259 3.0091-8.9602 0.4127 3.182-0.2612 8.0853 3.3548 9.5705 0-1.0936-0.1342-2.2506 0.4656-3.2313 0.5432 0.46567 1.0194 1.002 1.5627 1.4712 1.7991-1.397 1.4817-3.9476 2.6918-5.6374 1.471-1.2347 1.6157 1.5272 2.8469 1.8164 2.0743 0.74789 3.401 2.4944 4.5651 4.2654-0.6032-1.6122-1.6969-2.9667-2.3813-4.533 0.7126-0.42681 1.619-0.96695 2.4516-0.52245 2.2648 1.4217 0.7692 5.1824 3.3057 6.3149 0.5786-0.87136 0.8961-2.0319 1.9332-2.48 0.8714 1.2806 1.4007 2.8325 1.51 4.3847 1.524-0.45155 3.5276-0.23258 3.6546 1.7606 1.9509-3.4361 0.5115-7.9519 3.0515-11.183 1.3723-2.3918 4.2723-2.9842 6.1737-4.7692 0.064-1.4111 0.011-2.8221 0.032-4.2297-3.8219-0.78714-7.6824-1.0608-11.558-1.0961zm49.597 0.51676c-3.0935-7e-3 -6.3336 0.75172-9.3969 0.44856-1.9929-0.34572-1.8868 1.7922-2.0174 3.1574-0.3986 1.2453 1.1994 1.485 1.9508 2.067 2.54 1.2912 4.692 3.2916 5.9479 5.8668 0.5257-0.97366 1.3931 0.18344 2.1586 0.20464 2.921 0.30338 5.8421 0.64551 8.7772 0.68781 3.4043 1.7357 6.0151-2.8608 9.4547-2.1058 0.896 0.5715 1.8942 2.3601 2.3916 0.46922-0.321-0.79022-0.7759-1.5205-1.0087-2.3425 0.3951-1.3017 1.7604-2.039 2.2825-3.2949 1.2206-3.489-4.7028-6.3113-6.7489-3.5068 1.0125 0.35278 2.5261 0.18351 2.9812 1.3865 0.6244 1.8874-0.1309 4.0324-1.4009 5.4787-1.9191 1.7533-4.8256 0.86755-6.7588 2.5327-1.2594-3.5736-4.1804-6.4592-4.5155-10.393-1.3152-0.49168-2.6913-0.65349-4.0974-0.65681zm34.152 2.6557c-0.3147 7e-3 -0.6455 0.10161-0.9829 0.30799-0.7409 2.1414-2.8434 3.048-4.4591 4.4168-1.4641 0.9525-3.2315-1.0475-4.6638-0.15141-0.3351 2.5365-4.2049 3.6616-2.8608 6.5226 0.448 2.2719 4.0606-1.118 3.1786 1.295 0.3881-0.78317 0.3949-1.9759 1.432-2.1911 3.0268-0.94545 6.4171-0.9768 9.4051 0.13798 2.1625-0.90311 3.4184-3.2705 3.4184-5.5459-0.8855-0.41628-2.2227-0.52231-2.1028-1.7994 0.057-1.3959-1.0008-3.0221-2.3647-2.9926z" fill="#fdab55" stop-color="#000000" stroke="#fdab55" style="font-variation-settings:normal"/><path d="m3901.1 503.84c-0.178-5e-3 -0.3639 8e-3 -0.557 0.0429v5.2e-4c-0.1517 0.96661-0.1548 1.9541-0.3277 2.9208-0.8537 0.50091-1.8241 0.0104-2.7166-0.0848 0.2187 2.5435 1.8419 4.6989 2.2087 7.1613 0.19 1.203-1.7324 3.5174 0.2537 3.6091 6.3148-1.3264 12.873 4.6743 11.652 11.151 2.1414-0.39511 4.6 0.48696 5.8312 2.3249 2.1061 0.68438 4.812 0.40546 6.1314 2.5962 0.5395-3.6266-0.4307-7.32 0.6382-10.883-0.134-3.3972 1.5738-6.4244 2.4593-9.617-1.6299-0.40923-3.8913-1.5236-5.0695 0.27905-1.3935 1.2382-1.0544 3.1363-1.0444 4.7873-1.1571 0.55385-3.228 0.68397-3.5031-0.95292-0.5363-3.9052-2.4305-7.4292-3.9016-11.038-1.2417 2.3354 0.6951 5.1291-0.3033 7.5809-0.3915 0.98425-1.4322 2.078-2.5823 1.5911-2.9175-2.5541-4.7908-5.9726-6.844-9.1829-0.2223-1.2718-1.0795-2.2489-2.3255-2.2867zm-8.1307 3.3486c-1.1077 0.81844-2.0888 1.8273-2.9425 2.9068 1.5628 2.8646 2.5259 6.0009 3.2985 9.1653-0.9066-1.0795-2.0706-1.8206-3.3688-2.3322 0.194-2.6-1.3618-5.4043-4.1346-5.75-0.2928 0.15523-1.15 0.15531-0.6315 0.61392 1.5415 1.6404 1.3792 3.9334 1.4532 6.0218 0.395-1.524 0.5045-3.0941 0.695-4.6498 0.4268 1.3229 0.3738 2.72 0.4268 4.0922 0.011 0.93838 1.3547 0.99497 1.524 1.8981 1.0372 2.1414 0.1165 4.7661 1.3689 6.8016 1.3899-1.21 3.0445-1.6755 4.3145-0.0139 1.5204-0.9913 3.0302-2.2931 4.8999-2.4836 1.9791 0.59619 3.3164 3.3545 5.6271 2.2221 1.9296 2.2966 2.914 5.4963 5.641 6.9815 0.8819 0.98072 1.4039 2.2543 2.4164 3.1362 0.5786-2.2966-0.8749-4.1874-2.2366-5.8384-0.2152 0.0106-0.6457 0.0319-0.8609 0.046 0.1094-1.6968 0.4692-3.4467-0.1587-5.0906-0.06 1.0866-0.067 2.18-0.1762 3.2701-0.6562-3.5172-2.5331-6.6956-5.6446-8.5829 0.2611-0.06 0.7834-0.17977 1.0444-0.23977-2.4588-1.016-5.0557-0.57156-7.5003 0.20102 0.127-1.1959 1.7395-0.99463 2.6179-1.3756-1.1183 0.0176-6.0433 0.2751-3.1823-0.5116 1.778-3.8206 0.3989-10.083-4.4906-10.488zm110.89 8.9152c-0.7704-0.0172-1.5766 0.15948-2.205 0.4439-2.0285 0.889-3.1858 2.8821-4.8297 4.2509-3.2033 0.1517-6.3921-0.69816-9.5953-0.67696-1.2347 0.76552-1.6194 2.9315-3.3269 3.0303-2.6423-0.76905-1.5841-5.2991-4.6638-5.2638-1.1536-0.1905-2.2965 0.0917-3.376 0.4656 1.8838 5.4434 0.9524 11.254 0.3245 16.813-0.3528 0.83256-1.771 0.83977-1.5064 2.0004 0.1094 2.861-0.9984 5.7857-3.5419 7.2921 1.7498 0.58914 3.6619 0.59244 5.0059 2.067 2.2825 0.31397 4.6779-0.20094 6.9603 0.49403 3.228-0.46214 6.8336-1.0551 8.9891-3.7962 1.4568-0.95956-1.5456-2.4692 0.021-3.39 1.9579-1.0372 3.6229 0.7973 5.0622 1.8733-0.13-1.785-0.9022-3.7502 0.057-5.4188 0.635 0.381 0.8427 1.4607 1.7317 1.309 1.8768-0.16933 3.2773 1.2806 4.8648 2.0355-0.2399-2.0637 0.5048-3.9759 1.6231-5.6622 0.3175-2.9598 4.3989-2.9494 6.6849-2.7342 1.4569-0.41275 3.528-1.0439 3.528-2.896 0.4198-2.8434-2.1205-4.724-3.8773-6.5231-0.7973-0.16933-1.8447-0.58183-2.2293 0.4377-1.7391 1.9826-1.3548 4.7342-2.3038 7.0378-0.067 0.42686-0.1274 0.86057-0.1834 1.2945-1.8486-3.108-1.0477-6.9426 0.6351-9.9307-0.5574-0.74083-1.0795-1.5308-1.2806-2.4515-0.099-1.5059-1.2843-2.0735-2.5683-2.1022zm-68.336 7.2244-0.1871 0.25735c-2.1067 3.3831-2.3565 7.4545-2.1166 11.328-1.1112 1.9897 0.074 4.0989 1.9048 5.1149 0.1023-2.6176 0.3991-5.2351 0.3601-7.8528-0.5926 0.0423-1.1748 0.13092-1.7569 0.19792 0.8819-2.9386 2.1343-5.8704 1.7957-9.0454z" fill="#fd7f38" stop-color="#000000" stroke="#fd7f38" style="font-variation-settings:normal"/><path d="m3877.2 504.06c-0.4974 1.2453-0.2325 2.5011 0.6459 3.4959 0.8819 1.2488 1.7251 2.8082 1.0971 4.3605-1.2947 3.2526 0.032 6.7101 0.2191 10.044 0.201 0.98072-1.7006 0.15832-1.8417 1.1426 0.095 0.52916 0.2855 1.0339 0.4795 1.5384 1.7145 0.75847 3.161 1.9505 4.4628 3.284-0.12-1.0971-0.2965-2.1872-0.3245-3.2949 1.263 1.6757 0.8642 3.9656 1.8273 5.7929 1.1569 2.406 0.9702 5.2033 0.021 7.6445 2.7164-1.1818 5.7361-1.2628 8.5901-0.5643 0.1694-2.4342-0.7023-5.3728 1.3085-7.2636 1.1818-1.1183 1.4747-2.734 1.2878-4.2933-1.27-1.6616-2.9246-1.1961-4.3145 0.0139-1.2524-2.0355-0.3317-4.6603-1.3689-6.8016-0.1693-0.90311-1.513-0.9597-1.524-1.8981-0.053-1.3723 0-2.7693-0.4268-4.0922-0.1905 1.5558-0.3 3.1258-0.695 4.6498-0.074-2.0884 0.089-4.3814-1.4532-6.0218-0.5185-0.45861 0.3387-0.45869 0.6315-0.61392-1.1183-0.22577-2.586-0.35995-2.2438-1.8769-0.2998 0.49741-0.7689 1.263-1.4568 0.85732-2.7517-1.2065-1.6972-5.5068-4.9216-6.103zm145.49 7.9266c-0.9454 0.98072-1.8308 2.025-2.621 3.1362-0.4798 1.1606 3.4047 3.288 1.3374 3.1998-0.8819 0.11641-1.7677 0.24014-2.6567 0.27544 3.0374 0.75495 2.5225 5.0725 0.4764 6.6389-3.0516 2.0849-3.2176 8.0576-8.0083 7.2321-0.2187 0.0953-0.6563 0.29279-0.8785 0.38809 1.4076 0.35631 2.844 0.57869 4.2727 0.83974-0.4021 0.7232-0.907 1.3828-1.4609 1.9932 1.2206-0.67734 2.6178-1.2629 4.0431-0.93483 1.3828 0.40922 2.6877 1.1677 3.8907 1.9756-2.3636 0.13759-4.6844 0.96631-6.2084 2.8572-2.2472 1.9614-1.7111 5.2105-1.3477 7.8352 2.3989-1.263 6.276-0.0561 7.412-3.1605 2.8398-3.7324-0.8363-8.1424 0.3808-12.245 0.6843 1.5487 0.6245 3.2704 0.9349 4.9108-0.6914-4.2122 1.845-8.0364 5.0058-10.548 1.0721-2.1766 0.014-4.5542 0.049-6.8332-0.127-1.584-0.081-3.2102-0.5751-4.7377-1.905-0.06-3.1326-1.2739-4.0463-2.8226zm7.26 6.4348c-0.2222 0.47625-0.4411 0.95968-0.6351 1.45-0.3634 1.4429-0.8431 3.2527 0.4057 4.4204 2.8081-0.5962 2.0533-4.604 0.2294-5.8704zm-2.0815 8.8057c-3.87 2.2119-4.7692 6.6778-5.4007 10.714 0.1623 0.68086 0.4021 1.3442 0.7054 1.9792 1.2947-2.6705 2.7021-5.3941 2.9032-8.4103 0.092-1.5946 0.8114-3.0512 1.7921-4.2824zm15.29 1.4216c-0.2293 0.0635-0.6807 0.19385-0.9064 0.25735-2.5259 0.84667-4.4026 3.4856-4.0251 6.195 0.5538-2.854 2.5326-4.9706 4.9315-6.4523zm-32.719 2.5099c-2.1919 5e-3 -4.7372 0.50454-4.9853 2.8169 1.2453-0.67734 2.4871-1.3898 3.8453-1.8273 0.9349-0.32809 1.8871-0.6247 2.8396-0.90692-0.5001-0.0471-1.0859-0.0841-1.6996-0.0827zm-123.72 7.0947c-1.3221-0.0312-2.623 0.29649-3.7739 1.109 0.508 1.7392 1.1747 3.4294 1.912 5.0839 3.6054 0.29281 7.2072 2.829 7.5283 6.6461 0.5433 2.6599-0.6137 5.9234 1.3125 8.1494 2.3283 1.0971 4.4698 2.9278 4.3708 5.75 2.5824-0.99483 1.2351-4.8153-0.1901-6.3851-1.4922-1.2382-1.7288-3.1435-2.2015-4.8932-0.5574-1.5028-2.1381-2.2363-3.0024-3.5274 2.1695 0.42686 3.4255 2.3069 4.3181 4.1625 2.5893-3.9723-0.074-8.7382-2.6071-12.005-1.7462-2.2143-4.758-4.0216-7.6667-4.0902zm137.75 7.0254c-1.4075 0.64205-2.5293 1.725-3.4747 2.928-0.1836 1.3829-0.6315 2.8679 0.081 4.1837 0.2787-2.7199 1.1782-5.3619 3.3936-7.1117zm-141.35 2.0893c-0.3942-3e-3 -0.7932 0.0289-1.1932 0.0977 0.2011 0.96308 0.5718 1.9014 1.1751 2.6846 2.1837 0.1905 4.501 0.24367 6.3531 1.5772-1.0464-2.6207-3.5755-4.3394-6.335-4.3594zm135.63 0.0181c-3.1871-0.0721-6.0262 1.8376-8.2393 4.0473 0.021-0.47943 0.038-0.95544 0.07-1.4278-0.4621-0.54681-0.9099-1.4179-1.7601-1.2521-2.1873 0.1023-3.0304 2.6139-5.133 2.9843-1.2735 1.1289-2.1413 2.7589-2.8892 4.2793 0.2011 2.0884-2.3564 1.9159-3.7781 2.1487-2.1837 0.0917 0.2222 1.5274 1.1782 0.72657 2.0567-1.1465 4.6495-0.0673 6.505-1.5984 0.5433 0.99131 1.2386 1.9827 1.415 3.1187-1.0513 1.1254-3.6481 2.879-4.5124 0.68472-0.7234-1.337-0.021 0.58536-0.032 1.1498 0.3281 1.4605-1.5348 1.471-2.512 1.5451-3.2842 0.0882-5.9088 2.7975-6.6884 5.8596 0.829-0.73025 1.3757-1.6966 1.9719-2.6138 1.3229-2.1978 4.3072-2.9844 6.6673-2.2366 0.8398 0.35983 0.1869 1.5307 0.8077 2.0598 0.5257 0.60325 1.4396 1.0726 1.2491 2.0216-1.2912 0.79022-3.8841 0.62457-2.9492 2.7941 2.1837-0.86783 4.5509-0.81137 6.8616-0.75137 0.9278-1.6898 2.1022-3.3622 3.9543-4.1207 0.1623-0.11995 0.4941-0.35652 0.6599-0.47646-1.2347-1.4041-3.1184-2.2046-3.9827-3.9191-0.3952-1.3829 0.042-2.84 0.3493-4.1982 0.4974 1.0336 0.7514 2.1557 1.016 3.267 0.7938-2.9986 4.385-2.4025 6.6605-1.6511-0.032-1.3758-0.5898-2.8753 0.056-4.177 1.9967-2.353 3.5349-5.1684 4.4416-8.107-0.4687-0.0961-0.9316-0.14678-1.387-0.15709zm0.3287 6.7753c-0.1199 0.0529-0.3566 0.15523-0.4765 0.20463-2.2255 0.76906-2.3564 3.2987-2.2153 5.2813 2.1661-0.9525 2.5013-3.4011 2.6918-5.486zm-120.56 3.8039c1.3189 1.9789 1.8129 4.3107 2.7264 6.4694 0.1725-1.0372 0.317-2.1312-0.018-3.1507-0.737-1.2308-1.6222-2.3769-2.7083-3.3187zm98.109 15.372c-2.0535 0.0111-4.0834 0.98792-5.273 2.6934-1.5275 2.0814-1.7748 4.7167-2.3746 7.1474-0.2822 0.65263 0.7554 0.0422 1.0517 0.0775 0.1235-3.3867 2.2933-6.6255 5.8105-7.137 1.2206-0.36336 1.7105-1.5836 2.2009-2.6314-0.4664-0.10318-0.9416-0.15241-1.4155-0.14986z" fill="#a55b51" stop-color="#000000" stroke="#a55b51" style="font-variation-settings:normal"/><path d="m3877.8 507.55c-1.1042 2.0038-3.9335 2.4271-4.4767 4.9248 0.9807 2.4624 1.0409 5.101 1.1359 7.7081 0.2646 2.2437 3.009 2.0567 4.6565 1.771-0.1868-3.3337-1.5133-6.7907-0.2186-10.043 0.628-1.5522-0.2152-3.1116-1.0971-4.3605zm-31.542 8.8057c1.3476 0.84314 3.0623 1.4706 3.5527 3.1569 0.4022 0.58914 0.4762 1.8913 1.277 1.9301 0.381-0.0741 0.7689-0.13778 1.157-0.19068-1.7851-0.28575-1.3685-2.4236-2.5291-3.4184-0.8361-1.0478-2.1452-1.5026-3.4576-1.478zm189.4 2.0634c-1.4675-0.11289-1.5873 1.6968-1.9048 2.7234-0.3351-0.46214-0.6455-0.94164-0.9912-1.3932-1.1183 1.5946 0.455 4.2192-2.1027 4.9248 0.5786 0.0247 1.1609 0.0174 1.743 0.0915-1.4535 0.95603-3.1608 1.4467-4.579 2.4557-0.9807 1.2312-1.7001 2.6879-1.7921 4.2824-0.2011 3.0162-1.609 5.7398-2.9037 8.4103-0.3033-0.635-0.5431-1.2984-0.7054-1.9792-0.053-0.254-0.1589-0.75834-0.2119-1.0123-0.3104-1.6404-0.2505-3.3621-0.9348-4.9108-1.2171 4.1028 2.4589 8.5129-0.3809 12.245-1.136 3.1044-5.013 1.8976-7.4119 3.1605-0.9066 0.94543-1.8945 1.8167-2.9564 2.5823-0.031 0.47272-0.049 0.94907-0.07 1.4288 2.5294-2.5259 5.8772-4.6603 9.6273-3.8912-0.9067 2.9386-2.4449 5.754-4.4416 8.107-0.6452 1.3018-0.088 2.8012-0.056 4.177-2.2755-0.75141-5.8668-1.3475-6.6606 1.6511-0.2646-1.1112-0.5185-2.2333-1.0159-3.267-0.3072 1.3582-0.7446 2.8153-0.3494 4.1982 0.8643 1.7145 2.7481 2.5151 3.9828 3.9191-0.1658 0.11994-0.4971 0.35651-0.6594 0.47646 3.9899 1.0513 4.8046-3.9795 5.1221-6.844 0.515 0.51506 0.2433 1.3652 0.3985 2.0319 0.6421-0.22931 1.2633-0.51147 1.9125-0.73019 0.4903-0.18697 0.9874-0.3665 1.4743-0.57464 1.6192-1.6545 1.4184-4.1383 2.1275-6.195 0.7761-2.7446 3.1679-5.0484 6.0395-5.4012 1.6404-0.06 3.2208 0.46922 4.826 0.7338 0.6103-1.464-1.1959-3.1006-1.0795-4.7692-2.4624 0.43039-5.0274 0.30324-7.3628 1.3369 0.8924-1.0513 2.0496-2.3952 0.081-1.1147-2.2154 1.7498-3.1149 4.3918-3.3936 7.1117-0.7125-1.3158-0.2646-2.8008-0.081-4.1837 0.056-2.7164 3.0056-3.4821 4.9459-4.5651 0.5221-3.8276 0.7654-7.9941 3.376-11.099 1.0901-1.7886 3.0833-2.6386 4.4768-4.1026-0.4163-1.0125-1.2592-1.9509-1.0687-3.115 1.3618-0.28928 2.776-0.12687 4.1413-0.40204 0.5715-1.0513 1.0831-2.1417 1.8098-3.1083-0.7267-0.6914-1.6048-0.29974-2.4268-0.0563-0.1376-1.1148-0.1273-2.2718-0.5436-3.3336zm-157.53 8.2057c0.6492 3.0797 0.3846 6.2687-0.7302 9.2144-0.9913 2.0673 0.7161 3.9512 1.5028 5.7645 1.2877-0.56797 2.0427-1.9298 3.1434-2.7942-1.0654-1.4676-0.9559-3.3618-1.3792-5.0586-0.3281-1.8556-1.235-3.5915-1.203-5.5035 0.042-0.80786-0.7411-1.2522-1.3338-1.6226zm4.7625 12.732c-1.4393 1.397-3.9544 2.9635-2.3528 5.1966 1.4182 0.13053 2.8537 0.0884 4.2648-0.11265-0.7373-1.6545-1.404-3.3447-1.912-5.0839zm-11.369 2.4009c-0.5024 7e-3 -1.0106 0.0739-1.5178 0.20618-0.6668-0.127-1.7537 0.97379-0.4873 0.73743 4.0393-0.71261 7.2745 2.1981 9.2289 5.3836-0.4815-3.5251-3.7071-6.3782-7.2238-6.3273zm165.86 6.6549c-0.3951 0.0706-0.7869 0.15884-1.1679 0.2682-2.4659 0.70556-4.2686 4.7663-2.8081 6.3397-0.321-2.921 1.9193-4.9533 3.976-6.6079zm-18.36 5.7433c-0.1905 2.0849-0.5258 4.5335-2.6919 5.486-0.1411-1.9826-0.01-4.5123 2.2154-5.2813 0.1199-0.0494 0.3566-0.15173 0.4765-0.20463zm10.257 5.3599c-0.026 2e-3 -0.071 0.0182-0.1416 0.0517-2.7834 0.84314-4.1981 3.7997-3.6266 6.5655 0.5892-2.1202 1.2489-4.343 3.0339-5.7929 0.1111-0.17286 0.9135-0.83976 0.7343-0.82423zm-142.36 9.1948c-1.2154 0.0225-2.0978 1.1138-2.8975 1.9203 1.4782-0.67381 3.016-1.2208 4.6282-1.4712-0.5362-0.15522-1.0721-0.31045-1.6118-0.44803-0.04-2e-3 -0.08-2e-3 -0.1189-1e-3zm118.27 2.1797c-1.7429-5e-4 -3.4839 0.13047-5.1216 0.78134-0.6915 0.60325-1.39 1.1994-2.0779 1.8097-0.4904 1.0478-0.9803 2.268-2.2009 2.6314 1.7145-0.0529 3.2417 0.75143 4.6669 1.6087 2.032-0.93133 4.0324-1.9539 6.2125-2.5254-0.4339-1.4182-0.314-2.914 0.261-4.2757-0.5777-0.015-1.159-0.0298-1.74-0.03z" fill="#5e4f5a" stop-color="#000000" stroke="#5e4f5a" style="font-variation-settings:normal"/><path d="m4053.9 512.86c-0.047-3e-3 -0.1562 0.0442-0.352 0.1633-2.7163 1.4076-4.0285 5.4153-2.3528 8.0259 0.014-2.3883-0.1521-5.1082 1.7493-6.9004 0.1863-0.2981 1.1579-1.274 0.9555-1.2888zm-212.64 2.9998c2.3848 2.4483 4.2229 5.4856 4.1279 9.0346 0.9984-3.3761-0.8612-7.6058-4.1279-9.0346zm19.086 0.40927c2.0214 2.219 3.9471 4.6955 4.0111 7.8564 1.5734-2.7234-0.9419-7.0732-4.0111-7.8564zm5.0622 2.4376c0.9066 1.8732 0.1305 4.9636 2.5823 5.6162 5.842 2.8187 6.5685 11.836 1.3157 15.635 3.5383-0.30338 6.9849 1.471 9.1968 4.1698 0.5115 0.74436 1.348 1.1852 2.0888 0.42323-1.6016-2.2331 0.9135-3.7996 2.3528-5.1966 3.683-2.6 8.9006-0.23964 11.441 2.9812 2.5331 3.2667 5.1964 8.0327 2.6071 12.005-0.8926-1.8556-2.1486-3.7357-4.3181-4.1625 0.8643 1.2912 2.445 2.0246 3.0024 3.5274 0.4727 1.7498 0.7087 3.655 2.2009 4.8932 1.4252 1.5699 2.7731 5.3903 0.1907 6.3851 0.099-2.8222-2.0425-4.6529-4.3708-5.75-1.9262-2.226-0.7692-5.4894-1.3125-8.1494-0.2893 0.99483-0.2963 2.0392-0.4233 3.0587-0.1517-0.84667 0.092-1.8101-0.402-2.558-0.067 0.381-0.1311 0.76588-0.1871 1.1539-0.113 0.93839-0.028 1.8838-0.046 2.8293-0.7443-1.2241-0.7691-2.8752-1.8733-3.8489-1.8521-1.3335-4.1699-1.3867-6.3536-1.5772 0.049 2.8822 0.081 5.9198 1.1891 8.615 1.9826 0.53975 4.3039 0.38821 5.8844 1.9193 1.8767 1.4676 2.8289 3.7426 4.5046 5.3795 1.4888 1.2382 3.2035-0.26801 4.791-0.42323 0.6455-0.22578 2.1519-0.16191 1.7709-1.2061-0.9137-2.159-1.4076-4.4913-2.727-6.4704 1.0866 0.94191 1.9721 2.0885 2.7094 3.3197 0.1023-0.11289 0.3031-0.34196 0.4021-0.45837-0.5538-2.1167-2.4553-3.316-4.191-4.392 0.4022-1.6087 1.711-2.8116 2.1978-4.3956 1.3935-3.496 0.4236-7.4615-1.5379-10.531-1.5804-1.7427-3.5493-3.0902-5.7154-4.0039-2.854-0.6985-5.8738-0.61751-8.5902 0.5643 0.9492-2.4412 1.1365-5.2385-0.021-7.6445-0.9631-1.8274-0.5643-4.1172-1.8273-5.7929 0.028 1.1077 0.2045 2.1978 0.3245 3.2949-1.3018-1.3335-2.7483-2.5256-4.4628-3.284-2.106-1.3018-4.2649-2.7376-6.8579-2.6494-2.5082 0.24341-3.2456-2.7693-5.5351-3.2773zm173.27 3.1011c-0.7267 0.96661-1.2383 2.0566-1.8098 3.1078-1.3653 0.27517-2.7795 0.11276-4.1413 0.40204-0.1905 1.1642 0.6524 2.1026 1.0687 3.115-1.3935 1.464-3.3867 2.314-4.4768 4.1026-2.6106 3.1044-2.8539 7.2709-3.376 11.099-1.9403 1.083-4.8899 1.8487-4.9459 4.5651 0.9454-1.203 2.0672-2.2859 3.4747-2.928 1.9686-1.2806 0.8114 0.0634-0.081 1.1147 2.3354-1.0336 4.9004-0.90648 7.3628-1.3369 0.6209-2.1202 0.7899-4.5721 2.5291-6.1526 0.8361-1.016 2.6495-1.5666 2.3073-3.1647-0.3458-3.3055 1.6826-6.2053 4.0251-8.3008-0.1553-0.8643-0.6312-1.605-1.2697-2.1906-0.064-1.1712 0.3912-2.5539-0.6671-3.4324zm13.36 0.83561c-0.3038 8e-3 -0.7731 0.13099-0.9953 0.20154-3.8453 1.4217-5.2563 6.0502-4.1486 9.7508-0.9984 1.3335-3.3658 3.2984-2.1311 4.84 0.3881-2.0673 1.7499-3.662 3.5279-4.7098-0.5433-0.28222-1.2342-0.53255-1.1462-1.2769-0.4269-3.5419 1.926-6.6712 4.8964-8.3116 0.4392-0.39335 0.3007-0.50152 0-0.49403zm-173.86 3.9796c0.5927 0.37041 1.3753 0.81478 1.3333 1.6226 0.7479 0.87841 1.076 2.0109 1.6934 2.974-0.187-1.0125-0.4902-1.9968-0.723-2.9952 3.182 2.2225 4.2052 7.62 1.6123 10.583-1.1007 0.8643-1.8557 2.2262-3.1434 2.7942-0.7867-1.8133-2.4941-3.6972-1.5028-5.7645 1.1148-2.9457 1.3794-6.1347 0.7302-9.2144zm-34.068 2.3885c1.0583 1.3476 2.9741 1.7251 3.9548 3.1962 2.0811 2.3636 2.5785 5.6052 2.1058 8.632 2.5118-4.4732-0.8501-11.356-6.0606-11.828zm-3.8855 8.6041c-0.1652 4e-3 -0.3307 0.0136-0.4961 0.0279-0.3069-0.0776-1.471 0.58241-0.5432 0.56121 4.2122 0.127 8.3258 2.7126 9.9591 6.6461 0.381 0.7867 0.4939 1.7922 1.263 2.3249-0.1436-5.1536-5.0615-9.6981-10.183-9.5601zm217.48 1.5916c-0.3541 2e-3 -0.7062 0.0363-1.0501 0.13333-4.0252 1.0618-7.3944 4.9495-7.1722 9.2217 1.0337-2.0249 1.4464-4.4487 3.3161-5.9692 1.5664-1.8062 3.9407-2.2963 5.9691-3.3264-0.3527-0.0317-0.7088-0.0616-1.0629-0.0594zm-164.9 0.30644c4.7801 0.96662 7.8918 7.288 5.7893 11.546 0.2822-4.6426-2.8401-8.364-5.7893-11.546zm135.51 9.5663c-0.102-6.4e-4 -0.2044 3.9e-4 -0.3069 4e-3 -2.8716 0.35277-5.2634 2.6566-6.0395 5.4012-0.7091 2.0567-0.5083 4.5404-2.1275 6.195 1.7427 0.0847 3.9299 0.95961 5.2493-0.64906 1.5557-1.6192 3.7572-2.2018 5.9056-2.5016-0.4868-2.7411 0.1835-5.4821 1.8381-7.7117-1.5048-0.24804-2.9879-0.72827-4.5191-0.73794zm30.43 6.5955c-3.7222 4e-3 -7.4474 3.1519-7.5773 6.9556 1.6193-3.2491 4.3181-6.315 8.2269-6.4208 1.1889-0.0141 0.3245-0.45145-0.2894-0.52555-0.1199-7e-3 -0.2401-9e-3 -0.3602-9e-3zm-91.852 1.8722c-0.4938 0.1023-0.9844 0.21148-1.4712 0.33848-0.8643 1.6722 1.6298 0.39869 2.4412 0.22583-0.829 1.3652-2.5329 1.7776-3.8029 2.6314 0.9808-0.13404 1.5841 0.54358 2.2826 1.0092 0.8467-0.0388 0.769 0.96304 0.9524 1.5451 0.3528 2.3319 0.8793 4.6671 0.8893 7.0342 0.194 0.79728-1.3584 1.0305-1.1679 0.13797-0.3918-1.2206 0.6488-2.4805 0.028-3.6411-1.2876 2.0743 0.134 4.6007-1.39 6.5727 0.7338 0.32103 2.0501 0.27147 1.7079 1.418-0.9595 0.25047-2.2368 1.0761-1.4289 2.1838 0.8008 0.7126-0.2116 1.9083 0.6527 2.4551 0.8008-0.88194 0.5785-2.459 2.0143-2.8365-0.4551 1.3617 0.6633 5.0872-1.6862 3.7889-1.4217 0.17287 0.5993 1.3197 1.2449 1.1116 0.4128-0.64558 0.8786-1.2527 1.4537-1.7642-0.5962-1.524 0.529-3.196 0.1374-4.7976-0.8819-2.4977-0.1478-5.168-0.7793-7.7044-0.6526-3.1221-1.1821-6.2974-0.8893-9.4971-0.2963-0.0529-0.8922-0.15846-1.1886-0.21136zm-122.8 2.1585c-0.2852 3e-3 -0.5713 0.0341-0.8548 0.0956-0.6208 0.15875-2.0352 0.83614-0.5395 0.67386 3.1504-0.59619 5.5914 1.8908 6.5051 4.6142 0.3325-2.839-2.354-5.4141-5.1108-5.3836zm171.96 0.24701c-0.3175 2.8646-1.1322 7.8953-5.1221 6.844-1.8521 0.75847-3.027 2.4309-3.9548 4.1207-0.575 1.3617-0.6949 2.8575-0.261 4.2757 1.8839 0.0635 3.778-0.0848 5.6477-0.33177 0.1976-1.7216 0.2191-4.7978-2.3631-4.0111 1.143-0.77611 2.3811-0.44431 3.0726 0.71985 0.2822-0.47625 0.3349-1.2105 0.9452-1.3834 1.5346-0.41627 1.538-2.54 3.0303-3.0515 1.711-0.83609 3.6264-0.6029 5.4503-0.43357 0.1693-1.6016 0.5434-3.1682 0.8186-4.7522-1.577-0.68087-3.3617-8e-5 -4.9527-0.69505-0.6492 0.21872-1.2704 0.50088-1.9125 0.73019-0.1552-0.66675 0.1165-1.5169-0.3985-2.0319zm2.7528 9.5968c-0.5816-7e-3 -1.1885 0.0909-1.6345 0.20361-1.4464 0.50447-3.1819 1.3759-3.39 3.0763 2.0496-1.3511 4.265-2.3601 6.7485-2.5435-0.2699-0.5457-0.9762-0.72758-1.724-0.73639zm-22.97 6.5603c-3.5172 0.51153-5.687 3.7504-5.8105 7.137 0.7973 0.762 2.2329 0.52213 3.2912 0.44803 1.6934-2.7376 4.5086-4.3607 7.1862-5.9764-1.4252-0.85725-2.9524-1.6616-4.6669-1.6087zm-88.998 23.831c-0.1447 8e-3 -0.4132 0.067-0.7664 0.16485-5.006 1.7392-10.139 3.5526-14.718 6.1738 5.147-1.5522 9.9448-4.0639 14.996-5.8772 0.6262-0.34175 0.729-0.47404 0.4879-0.46147zm131.62 6.2963c1.33 0.94897 2.8538 1.57 4.3672 2.1627-1.2947-1.0019-2.7762-1.7676-4.3672-2.1627zm4.9485 9.5984c-0.1456 2e-3 -0.2911 8e-3 -0.4366 0.0186 1.6615 1.4323 3.6515 2.6034 5.7293 3.3125 1.5135 0.20814 2.8152 1.0373 3.9476 2.0216 0.4692 0.25754 1.6897 1.4636 1.2593 0.20774-0.1552-0.99836 1.0652-0.31402 1.5627-0.14469-0.2152-0.37042-0.3667-1.3616 0.3282-1.0935 4.6214 2.2754 9.2535 4.5511 13.766 7.0523 0.7126 0.24695 1.6401 1.0901 2.2893 0.32453-1.076-1.2629-2.3884-2.4274-3.9512-3.0236-2.5893-1.2524-5.4856-2.2932-7.5458-4.3393-0.07-0.0317-0.2157-0.0985-0.2857-0.13023-1.4711 0.23284-2.7163-0.64206-3.8628-1.4252-1.9968-0.74789-4.2055-1.0937-6.301-1.5487-1.8273 0.18697-3.5206-0.53272-5.1857-1.1607-0.4392-0.0476-0.8763-0.0773-1.3131-0.0713zm-169.08 3.1052c-2.5894 0.68086-4.7972 2.2614-7.2279 3.3233 0.501-0.54327 1.0437-1.0481 1.5306-1.602-3.6266 0.93839-6.5507 3.4608-10.057 4.7026 1.6968-1.3582 3.623-2.3775 5.5139-3.4324-0.9172-0.93485-1.9158-0.14482-2.8401 0.25735-2.2472 1.1748-4.4096 2.5122-6.5862 3.821 0.5856 0.28575 1.2415 0.15519 1.8624 0.11989-0.5221 0.44803-1.0549 0.89231-1.5735 1.3544 1.1148-0.49743 2.1981 0.67399 3.2282-0.0739 2.6634-1.3406 5.2176-2.8822 7.874-4.2333-0.1023 1.0795 0.8432 1.097 1.5911 1.4004 3.0339-1.4076 6.0076-3.0305 8.7452-4.9496-1.7533 0.23636-3.408 0.88896-5.0731 1.464 1.0548-0.64205 2.1273-1.2769 3.0127-2.1518z" fill="#273242" stop-color="#000000" stroke="#273242" style="font-variation-settings:normal"/><path d="m3852.3 521.25c-0.3881 0.0529-0.776 0.11658-1.157 0.19068 4.9705 1.2136 6.6537 7.3622 4.6534 11.652 3.7359-3.489 1.3931-10.806-3.4964-11.843zm28.194 6.9742c0.2328 0.99837 0.5365 1.9827 0.7235 2.9952-0.6174-0.96309-0.9455-2.0956-1.6934-2.974-0.032 1.912 0.8749 3.6479 1.203 5.5035 0.4233 1.6968 0.3138 3.591 1.3792 5.0586 2.5929-2.9633 1.5697-8.3608-1.6123-10.583zm-20.157 5.3976c1.4463 1.3935 3.3406 2.4308 4.1026 4.4416 1.0371 1.2982 0.4162 3.3585 1.5839 4.4592 0.5574-3.7465-1.5732-8.4351-5.6865-8.9008zm190.67 4.5946c-0.3153 2e-3 -0.8161 0.085-1.033 0.10439-4.1099 0.65616-6.5971 5.2951-5.7046 9.1968 0.822-3.7183 2.6776-7.7326 6.657-8.9214 0.5256-0.30339 0.3959-0.38203 0.081-0.37983zm-14.552 0.95137c-0.1305 0.0706-0.3877 0.21155-0.5183 0.28215-2.1379 1.2277-3.2812 4.3001-2.1523 6.5614 0.1129-2.54 1.1078-4.8715 2.6706-6.8435zm-143.64 0.34571c2.9492 3.1821 6.071 6.9035 5.7888 11.546 2.1025-4.258-1.0087-10.579-5.7888-11.546zm5.2844 1.9859c1.9615 3.0692 2.9314 7.0346 1.5379 10.531-0.4868 1.584-1.7956 2.7869-2.1978 4.3956 1.7357 1.076 3.6372 2.2753 4.191 4.392 0.5329 1.4288 0.2577 2.9774 0.494 4.4555 3.7712 0.381 6.7206 3.6301 6.7066 7.4295 3.429-0.27869 6.4134 2.071 7.4047 5.2777 2.7482-1.7886 6.452-0.75889 7.722 2.3032 2.1696 0.0317 4.3463-0.31397 6.4947-0.6103 0.3845-1.0654 0.1413-2.2471 0.1803-3.3548-0.254 0.44803-0.4168 1.0515-0.9989 1.1679-0.7761-1.7604-1.1284-3.9302-2.7864-5.1191-1.0125-0.29638-2.0814-0.2395-3.115-0.39119 1.0195-1.2488 2.8996-0.32144 4.1625-1.1364 0.5751-2.8363 0.8856-5.9193-0.3421-8.6356 0.2325 1.9015 0.6099 3.8344 0.2501 5.7464-2.286-0.64911-1.7281-4.4552-3.7284-5.8875-1.5733-2.1237-4.7944-0.0917-6.2725-2.2402-1.0231-1.4146-3.302-0.9775-4.0147-2.6991-0.7866-1.6404-2.5789-3.0761-4.4768-2.3952-0.9807 0.16581-2.96 1.2525-2.3885-0.58549 1.972-1.1218 4.3711-0.7694 6.456-1.5808-1.6933-0.56798-3.5627-0.32067-5.2136-1.0439-1.1716-1.3229-0.6846-3.2703-1.0868-4.8648-1.4817-0.0353-2.0991-1.3336-3.0975-2.0815-2.4236 0.0564-4.4132-1.2347-5.8808-3.0727zm-13.124 4.0582c-0.2214 6.4e-4 -0.4439 0.013-0.6661 0.0377 0.081 0.97367 1.2984 0.96299 1.9616 1.4004 2.5153 1.0231 3.7959 3.5455 5.1082 5.7433 0.056-0.38805 0.1201-0.77293 0.1871-1.1539-0.139-3.4032-3.27-6.0371-6.5908-6.0275zm119.73 11.728c-1.8556 1.5311-4.4483 0.45183-6.505 1.5984h-5e-4c-0.956 0.80081-3.3619-0.63538-1.1782-0.72708-0.9772 0.0459-1.9542 0.0707-2.9244 0.19068 0.9313 1.5275-1.1292 2.0781-1.9864 2.9388-1.4499 1.5346-1.4742 3.7924-2.0175 5.7185-0.6844 1.1818-2.5083 1.7251-3.623 0.77256-1.4147-1.0654-2.8615-2.3991-4.7806-2.205 0.8467 0.56092 1.7639 1.0124 2.5647 1.6438-0.4833 1.7039-0.5821 4.2549-2.7905 4.4524-0.1411 3.1044-3.57 3.644-5.7149 4.9987-0.6843 0.50449-1.4851 0.0741-2.2294 0.0212-0.3845 0.75494-0.4763 1.7464-1.3053 2.1838-1.8133-0.33161-1.8484-2.5401-2.4588-3.9124 0.3916 1.6016-0.7336 3.2736-0.1374 4.7976 6.5122 0.76552 12.943 2.0958 19.364 3.4117 0.5998-2.4306 0.8466-5.066 2.3741-7.1474 1.4641-2.099 4.2019-3.0938 6.689-2.5435 0.6879-0.6103 1.3864-1.2065 2.0779-1.8097-0.9349-2.1696 1.6579-2.0039 2.9491-2.7941 0.1905-0.94897-0.7233-1.4183-1.249-2.0216-0.6208-0.52916 0.032-1.7-0.8077-2.0598-2.3601-0.74789-5.3444 0.0388-6.6673 2.2366-0.5962 0.91723-1.1429 1.8835-1.9719 2.6138 0.7796-3.0621 3.4041-5.7714 6.6884-5.8596 0.9772-0.0741 2.8396-0.0846 2.5115-1.5451 0.011-0.56444-0.6912-2.4868 0.032-1.1498 0.8643 2.1943 3.4611 0.44064 4.5124-0.68472-0.1764-1.1359-0.8716-2.1274-1.4149-3.1187zm30.741 1.0692c-0.4551 4e-3 -0.9068 0.0318-1.3513 0.0847-3.8665 0.33867-6.5089 4.3847-5.3976 8.0889 0.8255-1.1218 0.6208-2.7656 1.4252-3.9615 1.0089-2.1978 3.2141-3.3196 5.3237-4.2121zm-149.19 2.5549c-0.1061 3e-3 -0.2127 0.01-0.3199 0.0201-0.8608 0.0176-1.6584 0.35644-2.3569 0.83975 2.2543-0.27164 4.6568 0.38831 6.2725 2.0252 0.9843 0.99482 1.2808 2.4692 2.3321 3.4075 0.1094-3.2091-2.6385-6.3949-5.9278-6.2926zm16.576 6.4916c-0.2934-2e-3 -0.5923 0.0286-0.8945 0.0941 1.7321 1.1677 3.8346 2.1415 4.5966 4.2581 0.3492 0.42686 0.4554 1.7177 1.1539 1.4108 0.291-2.7654-2.0203-5.7479-4.856-5.763zm-13.901 1.0082c-0.6318-9e-3 -1.256 0.0856-1.8381 0.29921 0.5397 0.13758 1.0756 0.29281 1.6118 0.44803 2.6317 0.31398 4.2689 2.3533 5.9975 4.0607-0.1576-2.7717-3.0333-4.768-5.7712-4.808z" fill="#e64860" stop-color="#000000" stroke="#e64860" style="font-variation-settings:normal"/><path d="m3899.9 523.46c-1.8697 0.1905-3.3795 1.4923-4.8999 2.4836 0.1869 1.5593-0.106 3.175-1.2878 4.2933-2.0108 1.8909-1.1391 4.8295-1.3085 7.2636 2.1661 0.91369 4.1345 2.2612 5.7149 4.0039 1.4676 1.838 3.4572 3.1291 5.8808 3.0727 0.9984 0.74789 1.6158 2.0462 3.0975 2.0815 0.4022 1.5946-0.084 3.5419 1.0868 4.8648 1.6509 0.7232 3.5203 0.47589 5.2136 1.0439-2.0849 0.81138-4.484 0.45895-6.456 1.5808-0.5715 1.838 1.4078 0.7513 2.3885 0.58549 1.8979-0.68085 3.6902 0.7548 4.4768 2.3952 0.7127 1.7216 2.9916 1.2844 4.0147 2.6991 1.4781 2.1484 4.6992 0.11645 6.2725 2.2402 2.0003 1.4323 1.4424 5.2384 3.7284 5.8875 0.3598-1.912-0.017-3.845-0.2501-5.7464 1.2277 2.7164 0.9172 5.7993 0.3421 8.6356-1.2629 0.81492-3.143-0.11248-4.1625 1.1364 1.0336 0.15169 2.1025 0.0949 3.115 0.39119 1.658 1.1889 2.0103 3.3587 2.7864 5.1191 0.5821-0.11642 0.7449-0.71986 0.9989-1.1679 0.4233-1.1712 0.6808-2.4202 0.5468-3.669-0.374-3.3902 0.3524-6.7588 0.8604-10.096 0.4833-3.6124 0.4027-7.2639 0.4837-10.898 0.088-2.3566 2.1234-4.7235 0.864-7.0342-2.3989 1.0971-5.288 0.12703-6.8931-1.912-1.4499-1.9544-1.513-4.5334-1.45-6.8652 0.6173-0.067 1.2384-0.12008 1.8593-0.19068-1.3829-0.46214-3.0234-0.26457-3.3197-2.0955-1.3194-2.1908-4.0253-1.9118-6.1314-2.5962-1.2312-1.838-3.6898-2.72-5.8312-2.3249-0.092 0.43745-0.1907 0.87833-0.293 1.3193 1.3617 1.651 2.8152 3.5418 2.2366 5.8384-1.0125-0.88195-1.5345-2.1555-2.4164-3.1362-2.727-1.4852-3.7114-4.6849-5.641-6.9815-2.3107 1.1324-3.648-1.6259-5.6271-2.2221zm66.488 3.0618c-0.5186 1.1289-1.33 2.0603-2.0955 3.0164-0.3704 2.6529 0.381 5.3233 0.7126 7.9514 1.2594 0.32103 1.8415-1.0934 2.0144-2.0882 0.2822-2.9739 1.4675-6.2655-0.6315-8.8796zm43.981 6.3324c-2.9315 0.79728-4.5119 3.3512-5.2492 6.1206-1.6438-2.2931 0.063 1.5101-0.081 2.5931-0.5574-0.53975-0.8995-1.2241-1.1782-1.9332-1.5875-0.75494-2.988-2.2049-4.8648-2.0355-0.889 0.1517-1.0972-0.92797-1.7322-1.309-0.9601 1.6686-0.1874 3.6338-0.057 5.4188-1.4393-1.076-3.1043-2.9104-5.0622-1.8733-1.5661 0.92074 1.4358 2.4309-0.021 3.3905-2.1555 2.7411-5.7606 3.3335-8.9886 3.7956-2.2824-0.69497-4.6778-0.18006-6.9603-0.49403-1.344-1.4746-3.2561-1.4779-5.0059-2.067-1.143 0.17639-2.2403 0.6844-3.3868 0.89607-0.501 2.4765 0.2189 4.9176 0.5999 7.3412-0.5327 1.6686-0.3812 3.3513-0.2754 5.0658-0.2928 3.1997 0.2367 6.375 0.8893 9.4971 0.6315 2.5365-0.1026 5.2068 0.7793 7.7044 0.6104 1.3723 0.6455 3.5808 2.4588 3.9124 0.829-0.43744 0.9208-1.4289 1.3053-2.1838 0.7443 0.0529 1.5456 0.48328 2.2299-0.0212 2.1449-1.3547 5.5738-1.8942 5.7149-4.9987 2.2084-0.19755 2.3072-2.7485 2.7905-4.4524-0.8008-0.63148-1.718-1.0829-2.5647-1.6438 1.9191-0.19403 3.3654 1.1396 4.7801 2.205 1.1147 0.9525 2.9386 0.40923 3.623-0.77256 0.5433-1.9262 0.5681-4.1839 2.018-5.7185 0.8572-0.86078 2.9172-1.4113 1.9859-2.9388 0.9702-0.1199 1.9472-0.14427 2.9244-0.19017 1.4217-0.23283 3.9796-0.0603 3.7785-2.1487 0.7479-1.5205 1.6158-3.1504 2.8893-4.2793 2.1026-0.37042 2.9457-2.882 5.133-2.9843 0.8502-0.16581 1.298 0.70531 1.7601 1.2521 1.0619-0.76553 2.0498-1.6368 2.9564-2.5823-0.3634-2.6247-0.8995-5.8737 1.3477-7.8352 1.524-1.8909 3.8453-2.7196 6.2089-2.8572-1.203-0.80785-2.5084-1.5664-3.8912-1.9756-2.7447 1.1677-5.5953 2.7024-6.9076 5.5387-1.4323 2.3954-1.065 5.2384-0.6981 7.8631-2.6847-4.3392-0.4732-9.8634 3.5625-12.467 0.5539-0.61031 1.0588-1.27 1.4609-1.9932-1.4287-0.26105-2.8645-0.48343-4.2721-0.83974zm-59.88 13.511c-1.0195 4.6567-2.2332 9.3063-3.4432 13.903-0.6527 3.1856 0.046 6.4278-0.3494 9.6346-0.7726 2.7446-1.5238 5.8452-0.8464 8.6145 3.1679 0.17287 6.3497-0.095 9.5141 0.21188-1.7569-5.4786-1.3508-11.409-1.5942-17.043-0.8925-5.1082-1.5558-10.393-3.2809-15.321zm-28.375 7.7572c3.2442 0.0861 6.001 2.273 7.8465 4.823-1.1465-0.94897-2.0741-2.1379-3.2665-3.0339-1.5522-1.0901-3.542-1.0686-5.2353-1.7777 0.2205-0.0135 0.439-0.0171 0.6553-0.0114zm66.295 1.6423c0.4097-4e-3 0.8204 0.0286 1.2278 0.0868-0.5609 0.81847-1.6895 0.62457-2.5326 0.86093-2.3883 0.3422-4.1842 2.078-6.0539 3.4256-2.6529-0.0106-5.9052 0.13732-7.4962 2.635-0.6068 0.71261-0.6103 2.1803-1.6686 2.3249 0.4868-3.0656 3.2348-5.6337 6.3675-5.7748 3.5348 0.5856 5.4222-3.3762 8.9359-3.4256 0.4022-0.0882 0.8105-0.12883 1.2201-0.1328z" fill="#f86543" stop-color="#000000" stroke="#f86543" style="font-variation-settings:normal"/></g></g></svg>